<?xml version="1.0" encoding="UTF-8"?>
<svg version="1.1" xmlns="http://www.w3.org/2000/svg" width="188" height="128">
<path d="M0 0 C0.81533203 -0.00322266 1.63066406 -0.00644531 2.47070312 -0.00976562 C7.134378 0.03170602 10.9297102 0.5353106 15.3125 2.3125 C15.3125 2.9725 15.3125 3.6325 15.3125 4.3125 C16.3025 3.9825 17.2925 3.6525 18.3125 3.3125 C20.2578125 3.94140625 20.2578125 3.94140625 22.4375 4.875 C29.35558216 7.31141666 34.47862339 5.17176267 40.875 2.1875 C49.29573081 -1.32552363 60.84100928 -1.15777571 69.3046875 2.26953125 C73.20978415 4.29805422 76.76592079 6.71667924 80.3125 9.3125 C81.07433594 9.85777344 81.83617187 10.40304687 82.62109375 10.96484375 C88.15646914 15.00043829 88.15646914 15.00043829 89.3125 17.3125 C89.93125 17.621875 90.55 17.93125 91.1875 18.25 C95.46288038 20.38769019 96.63657469 22.9550942 98.3125 27.3125 C99.3025 28.3025 99.3025 28.3025 100.3125 29.3125 C100.3125 30.3025 100.3125 31.2925 100.3125 32.3125 C100.9725 32.6425 101.6325 32.9725 102.3125 33.3125 C104.89212462 37.1686399 107.08846442 41.24357836 109.3125 45.3125 C110.16521484 46.859375 110.16521484 46.859375 111.03515625 48.4375 C117.45559363 61.05752434 119.12329216 75.27003383 115.0625 88.9375 C113.26973039 93.86105751 111.01632168 99.8409285 106.23828125 102.44140625 C105.60277344 102.72886719 104.96726563 103.01632813 104.3125 103.3125 C103.85875 103.8075 103.405 104.3025 102.9375 104.8125 C100.6731234 106.90269379 98.23598316 107.4679382 95.3125 108.3125 C99.51613341 113.51635486 103.8207439 117.71603547 109.296875 121.57421875 C111.3125 123.3125 111.3125 123.3125 114.3125 128.3125 C54.2525 128.3125 -5.8075 128.3125 -67.6875 128.3125 C-61.6875 120.3125 -61.6875 120.3125 -58.6875 117.3125 C-58.0275 117.3125 -57.3675 117.3125 -56.6875 117.3125 C-56.6875 116.6525 -56.6875 115.9925 -56.6875 115.3125 C-55.39516393 113.93939293 -54.06312854 112.60215176 -52.6875 111.3125 C-54.51496573 109.26342379 -54.51496573 109.26342379 -56.62109375 108.38671875 C-62.3766705 105.39468925 -65.67709442 99.23790591 -67.6875 93.3125 C-68.375 90 -68.375 90 -68.6875 86.3125 C-68.75195312 85.59578125 -68.81640625 84.8790625 -68.8828125 84.140625 C-69.26168274 76.41167216 -67.03858434 69.60688988 -64.6875 62.3125 C-64.44902344 61.51972656 -64.21054688 60.72695313 -63.96484375 59.91015625 C-61.76315978 52.83048983 -58.65423649 46.09581937 -55.6875 39.3125 C-55.15707249 38.06270344 -54.62711856 36.81270577 -54.09765625 35.5625 C-50.74812932 27.84281466 -50.74812932 27.84281466 -47.6875 26.3125 C-47.419375 25.77625 -47.15125 25.24 -46.875 24.6875 C-43.65728313 18.25206627 -39.7947776 14.11514454 -33.6875 10.3125 C-33.0275 10.3125 -32.3675 10.3125 -31.6875 10.3125 C-31.3575 9.6525 -31.0275 8.9925 -30.6875 8.3125 C-29.02083333 7.97916667 -27.35416667 7.64583333 -25.6875 7.3125 C-25.3575 6.6525 -25.0275 5.9925 -24.6875 5.3125 C-22.71354477 4.57226679 -20.70478138 3.92488899 -18.6875 3.3125 C-18.03740967 3.06532227 -17.38731934 2.81814453 -16.7175293 2.56347656 C-11.0197957 0.44248403 -6.05051832 -0.12130149 0 0 Z " fill="#050505" transform="translate(69.6875,-0.3125)"/>
<path d="M0 0 C1.34330666 0.8048504 2.65257722 1.66738526 3.9375 2.5625 C4.87335938 3.20703125 5.80921875 3.8515625 6.7734375 4.515625 C16.9654526 11.85798348 26.54635509 20.121445 32 31.625 C33.9572001 35.771096 33.9572001 35.771096 36.484375 39.5703125 C42.54253532 47.87585487 43.04853906 59.72980436 41.9375 69.5625 C41.01020418 72.87900188 39.71758176 75.62660126 37.9375 78.5625 C37.36 79.635 36.7825 80.7075 36.1875 81.8125 C31.25247349 87.84419907 23.24739179 92.00937193 15.53486633 92.99919128 C13.75670784 93.04249321 13.75670784 93.04249321 11.94262695 93.08666992 C11.28122711 93.10661514 10.61982727 93.12656036 9.93838501 93.14710999 C7.76763676 93.20917136 5.59700848 93.25128714 3.42578125 93.29296875 C1.89183094 93.33236949 0.35791039 93.37294445 -1.17597961 93.41462708 C-5.21385123 93.52088518 -9.25193103 93.60988472 -13.2902832 93.69561768 C-16.53131521 93.76727424 -19.77197486 93.85111202 -23.01269341 93.93562126 C-39.36204317 94.36167597 -55.70647397 94.71328836 -72.0625 94.5625 C-72.0625 91.44992431 -71.88888376 89.45484315 -71.0625 86.5625 C-70.0725 86.5625 -69.0825 86.5625 -68.0625 86.5625 C-68.0625 85.9025 -68.0625 85.2425 -68.0625 84.5625 C-68.7225 84.2325 -69.3825 83.9025 -70.0625 83.5625 C-69.46066251 81.54204558 -68.78943904 79.54138961 -68.0625 77.5625 C-67.0725 77.0675 -67.0725 77.0675 -66.0625 76.5625 C-66.3925 75.2425 -66.7225 73.9225 -67.0625 72.5625 C-65.5775 71.5725 -65.5775 71.5725 -64.0625 70.5625 C-64.0625 71.8825 -64.0625 73.2025 -64.0625 74.5625 C-62.29118439 74.25274532 -60.52046222 73.93959575 -58.75 73.625 C-57.27080078 73.36396484 -57.27080078 73.36396484 -55.76171875 73.09765625 C-52.98060787 72.60503153 -52.98060787 72.60503153 -50.0625 71.5625 C-47.34322689 71.46476714 -44.65609857 71.42113522 -41.9375 71.4375 C-41.17574463 71.43943359 -40.41398926 71.44136719 -39.62915039 71.44335938 C-34.37544703 71.48369921 -29.26714051 71.80546138 -24.0625 72.5625 C-24.3925 71.2425 -24.7225 69.9225 -25.0625 68.5625 C-30.61229613 67.40242556 -36.04430498 67.37117475 -41.6875 67.375 C-42.66283691 67.37435547 -43.63817383 67.37371094 -44.64306641 67.37304688 C-51.64051243 67.42426757 -58.23248522 67.94865685 -65.0625 69.5625 C-65.0625 68.5725 -65.0625 67.5825 -65.0625 66.5625 C-64.4025 66.5625 -63.7425 66.5625 -63.0625 66.5625 C-63.10375 65.44875 -63.145 64.335 -63.1875 63.1875 C-63.0625 59.5625 -63.0625 59.5625 -61.0625 57.5625 C-60.45640377 55.53337478 -60.45640377 55.53337478 -60.0625 53.25 C-59.36501798 49.82849372 -58.4769898 46.76867688 -57.0625 43.5625 C-56.7325 42.5725 -56.4025 41.5825 -56.0625 40.5625 C-57.3 39.881875 -57.3 39.881875 -58.5625 39.1875 C-59.3875 38.65125 -60.2125 38.115 -61.0625 37.5625 C-61.0625 36.9025 -61.0625 36.2425 -61.0625 35.5625 C-59.5775 35.0675 -59.5775 35.0675 -58.0625 34.5625 C-58.08570312 33.79164062 -58.10890625 33.02078125 -58.1328125 32.2265625 C-58.15085937 31.22367188 -58.16890625 30.22078125 -58.1875 29.1875 C-58.21070312 28.18976562 -58.23390625 27.19203125 -58.2578125 26.1640625 C-58.0625 23.5625 -58.0625 23.5625 -56.0625 21.5625 C-56.0625 20.2425 -56.0625 18.9225 -56.0625 17.5625 C-56.0625 13.5625 -56.0625 13.5625 -54.0625 11.5625 C-53.0725 11.5625 -52.0825 11.5625 -51.0625 11.5625 C-51.26875 10.964375 -51.475 10.36625 -51.6875 9.75 C-52.0625 7.5625 -52.0625 7.5625 -50.0625 4.5625 C-50.3925 3.9025 -50.7225 3.2425 -51.0625 2.5625 C-49.77214844 2.65789063 -48.48179688 2.75328125 -47.15234375 2.8515625 C-45.43493753 2.9641793 -43.71748706 3.0761228 -42 3.1875 C-41.15244141 3.25195312 -40.30488281 3.31640625 -39.43164062 3.3828125 C-32.69344853 3.79907147 -27.64627112 2.72074222 -21.4375 -0.0625 C-14.88313484 -2.54907822 -6.46437034 -2.94203076 0 0 Z " fill="#D3D5D4" transform="translate(135.0625,11.4375)"/>
<path d="M0 0 C0 3.16820458 -0.62797454 4.25594908 -2 7 C-2 7.99 -2 8.98 -2 10 C-3.98 10.99 -3.98 10.99 -6 12 C-5.97679687 12.69867187 -5.95359375 13.39734375 -5.9296875 14.1171875 C-5.91164062 15.02726562 -5.89359375 15.93734375 -5.875 16.875 C-5.85179687 17.77992187 -5.82859375 18.68484375 -5.8046875 19.6171875 C-6 22 -6 22 -8 24 C-8.24287489 26.44012949 -8.24287489 26.44012949 -8.125 29.125 C-8.10695312 30.03507812 -8.08890625 30.94515625 -8.0703125 31.8828125 C-8.04710937 32.58148438 -8.02390625 33.28015625 -8 34 C-8.99 34.495 -8.99 34.495 -10 35 C-10.99 34.505 -10.99 34.505 -12 34 C-9.64722731 36.72426311 -7.37503669 37.8141763 -4 39 C-4.61875 39.474375 -5.2375 39.94875 -5.875 40.4375 C-8.82795985 43.99842217 -9.25669283 47.51617933 -10 52 C-10.5 55 -10.5 55 -11 57 C-11.99 57.495 -11.99 57.495 -13 58 C-13.40729228 60.32156597 -13.74438677 62.6568787 -14 65 C-14.66 65 -15.32 65 -16 65 C-15.67 65.66 -15.34 66.32 -15 67 C-14.46117187 66.855625 -13.92234375 66.71125 -13.3671875 66.5625 C-6.49461233 65.01132316 0.23595104 64.77786578 7.25 64.75 C8.66949951 64.73646484 8.66949951 64.73646484 10.11767578 64.72265625 C15.46940232 64.74527316 19.93934975 65.2385582 25 67 C25.5625 68.9375 25.5625 68.9375 26 71 C25.67 71.33 25.34 71.66 25 72 C23.845 71.855625 22.69 71.71125 21.5 71.5625 C16.76476112 70.98298606 12.07696245 70.8488895 7.3125 70.8125 C6.58804688 70.79968994 5.86359375 70.78687988 5.1171875 70.77368164 C0.65081653 70.76497427 -2.82555111 71.49009295 -7 73 C-9.71061275 73.22663986 -12.27148292 73.0940868 -15 73 C-15.33 72.01 -15.66 71.02 -16 70 C-16.68707555 72.49064888 -17 74.37886292 -17 77 C-17.99 77.495 -17.99 77.495 -19 78 C-20.09036928 80.9737344 -20.03864166 81.88407501 -19 85 C-19.99 85 -20.98 85 -22 85 C-22 85.66 -22 86.32 -22 87 C-21.01 87.495 -21.01 87.495 -20 88 C-21.98 88.99 -21.98 88.99 -24 90 C-23.67 90.66 -23.34 91.32 -23 92 C-20.1840151 92.46898963 -20.1840151 92.46898963 -16.9375 92.625 C-15.83277344 92.69976562 -14.72804687 92.77453125 -13.58984375 92.8515625 C-12.30787109 92.92503906 -12.30787109 92.92503906 -11 93 C-11 93.33 -11 93.66 -11 94 C-16.38940095 94.02488181 -21.7787678 94.04294551 -27.16821289 94.05493164 C-28.99829695 94.05993319 -30.82837707 94.06673656 -32.65844727 94.07543945 C-35.30225604 94.08768932 -37.94601158 94.09327023 -40.58984375 94.09765625 C-41.39646957 94.10281754 -42.2030954 94.10797882 -43.03416443 94.11329651 C-57.59195035 94.11470597 -57.59195035 94.11470597 -62 90.625 C-64 88 -64 88 -65 85 C-64.72428861 82.99124558 -64.39764263 80.98821313 -64 79 C-63.34 79 -62.68 79 -62 79 C-62.04125 77.7625 -62.0825 76.525 -62.125 75.25 C-62.13658291 71.98362038 -61.8568702 69.7853053 -60 67 C-59.34 67 -58.68 67 -58 67 C-57.87882812 66.20335938 -57.75765625 65.40671875 -57.6328125 64.5859375 C-56.77763751 59.17860028 -55.73193309 54.19579926 -54 49 C-53.83201531 45.74955291 -53.83201531 45.74955291 -54 43 C-53.34 43.99 -52.68 44.98 -52 46 C-52 45.01 -52 44.02 -52 43 C-51.34 42.34 -50.68 41.68 -50 41 C-50.66 40.67 -51.32 40.34 -52 40 C-52 39.34 -52 38.68 -52 38 C-51.01 37.34 -50.02 36.68 -49 36 C-49.66 35.34 -50.32 34.68 -51 34 C-49.68 33.34 -48.36 32.68 -47 32 C-47.495 31.505 -47.495 31.505 -48 31 C-48.04080783 29.00041636 -48.04254356 26.99954746 -48 25 C-47.360625 24.835 -46.72125 24.67 -46.0625 24.5 C-43.6086881 23.08385255 -43.6086881 23.08385255 -43.4375 19.625 C-43.375625 18.91988281 -43.31375 18.21476562 -43.25 17.48828125 C-42.0266138 5.31176549 -42.0266138 5.31176549 -38.4453125 1.2265625 C-25.95278216 -7.3264147 -13.05179401 -5.49549221 0 0 Z " fill="#161616" transform="translate(86,13)"/>
<path d="M0 0 C-1.11766054 3.35298161 -2.54724099 4.54724099 -5 7 C-5 7.66 -5 8.32 -5 9 C-4.01 9.99 -4.01 9.99 -3 11 C-4.32 11.66 -5.64 12.32 -7 13 C-6.95875 13.86625 -6.9175 14.7325 -6.875 15.625 C-7.04327104 20.16831802 -7.73262697 23.73262697 -11 27 C-11.39764263 28.98821313 -11.73775349 30.98944339 -12 33 C-9.88566761 34.27153943 -9.88566761 34.27153943 -6.75 33.75 C-1.72696175 34.08486922 -0.50950397 35.49049603 3 39 C5.4915904 42.7373856 5.45793285 44.57331583 5 49 C2.79341015 52.54630512 0.8147075 54.40589778 -3 56 C-5.26402255 56.35076406 -7.49655852 56.49976428 -9.78125 56.65625 C-12.22547536 57.0349328 -13.90509458 57.69300149 -16 59 C-16.80528889 61.05000871 -16.80528889 61.05000871 -17 63 C-17.66 63 -18.32 63 -19 63 C-19 63.66 -19 64.32 -19 65 C-18.34 65 -17.68 65 -17 65 C-17.165 65.721875 -17.33 66.44375 -17.5 67.1875 C-18.0980395 69.94545588 -18.0980395 69.94545588 -17.875 72.5625 C-18.03107419 75.60594669 -18.91042435 76.83005606 -21 79 C-21.66 79 -22.32 79 -23 79 C-23 79.66 -23 80.32 -23 81 C-23.66 81 -24.32 81 -25 81 C-25 81.66 -25 82.32 -25 83 C-25.66 83 -26.32 83 -27 83 C-27 83.99 -27 84.98 -27 86 C-26.01 86.495 -26.01 86.495 -25 87 C-25.66 87 -26.32 87 -27 87 C-26.34 88.32 -25.68 89.64 -25 91 C-25.66 91 -26.32 91 -27 91 C-27 91.99 -27 92.98 -27 94 C-21.72 94 -16.44 94 -11 94 C-11 94.33 -11 94.66 -11 95 C-51.04591862 96.19388403 -51.04591862 96.19388403 -68 96 C-68 92.88742431 -67.82638376 90.89234315 -67 88 C-66.01 88 -65.02 88 -64 88 C-64 87.34 -64 86.68 -64 86 C-64.66 85.67 -65.32 85.34 -66 85 C-65.39816251 82.97954558 -64.72693904 80.97888961 -64 79 C-63.01 78.505 -63.01 78.505 -62 78 C-62.33 76.68 -62.66 75.36 -63 74 C-61.515 73.01 -61.515 73.01 -60 72 C-60 73.32 -60 74.64 -60 76 C-58.22868439 75.69024532 -56.45796222 75.37709575 -54.6875 75.0625 C-53.20830078 74.80146484 -53.20830078 74.80146484 -51.69921875 74.53515625 C-48.91810787 74.04253153 -48.91810787 74.04253153 -46 73 C-43.28072689 72.90226714 -40.59359857 72.85863522 -37.875 72.875 C-37.11324463 72.87693359 -36.35148926 72.87886719 -35.56665039 72.88085938 C-30.31294703 72.92119921 -25.20464051 73.24296138 -20 74 C-20.33 72.68 -20.66 71.36 -21 70 C-26.54979613 68.83992556 -31.98180498 68.80867475 -37.625 68.8125 C-38.60033691 68.81185547 -39.57567383 68.81121094 -40.58056641 68.81054688 C-47.57801243 68.86176757 -54.16998522 69.38615685 -61 71 C-61 70.01 -61 69.02 -61 68 C-60.34 68 -59.68 68 -59 68 C-59.04125 66.88625 -59.0825 65.7725 -59.125 64.625 C-59 61 -59 61 -57 59 C-56.39390377 56.97087478 -56.39390377 56.97087478 -56 54.6875 C-55.30251798 51.26599372 -54.4144898 48.20617688 -53 45 C-52.67 44.01 -52.34 43.02 -52 42 C-53.2375 41.319375 -53.2375 41.319375 -54.5 40.625 C-55.325 40.08875 -56.15 39.5525 -57 39 C-57 38.34 -57 37.68 -57 37 C-55.515 36.505 -55.515 36.505 -54 36 C-54.02320312 35.22914062 -54.04640625 34.45828125 -54.0703125 33.6640625 C-54.08835937 32.66117188 -54.10640625 31.65828125 -54.125 30.625 C-54.14820312 29.62726562 -54.17140625 28.62953125 -54.1953125 27.6015625 C-54 25 -54 25 -52 23 C-52 21.68 -52 20.36 -52 19 C-52 15 -52 15 -50 13 C-49.01 13 -48.02 13 -47 13 C-47.20625 12.401875 -47.4125 11.80375 -47.625 11.1875 C-48 9 -48 9 -46 6 C-46.33 5.34 -46.66 4.68 -47 4 C-45.70964844 4.09539063 -44.41929688 4.19078125 -43.08984375 4.2890625 C-41.37243753 4.4016793 -39.65498706 4.5136228 -37.9375 4.625 C-37.08994141 4.68945312 -36.24238281 4.75390625 -35.36914062 4.8203125 C-28.63094853 5.23657147 -23.58377112 4.15824222 -17.375 1.375 C-11.80156596 -0.81692366 -5.8854386 -0.24223604 0 0 Z M-21 64 C-21 64.99 -21 65.98 -21 67 C-20.34 66.34 -19.68 65.68 -19 65 C-19.66 64.67 -20.32 64.34 -21 64 Z " fill="#B4B4B2" transform="translate(131,10)"/>
<path d="M0 0 C1.6266848 0.28211877 3.25132896 0.57602375 4.875 0.875 C5.77992187 1.03742187 6.68484375 1.19984375 7.6171875 1.3671875 C10 2 10 2 12 4 C11.6875 5.8125 11.6875 5.8125 11 8 C10.896875 8.86625 10.79375 9.7325 10.6875 10.625 C10 13 10 13 7.95703125 14.1484375 C7.31121094 14.42945313 6.66539063 14.71046875 6 15 C6.02320313 15.69867188 6.04640625 16.39734375 6.0703125 17.1171875 C6.08835938 18.02726562 6.10640625 18.93734375 6.125 19.875 C6.14820313 20.77992187 6.17140625 21.68484375 6.1953125 22.6171875 C6 25 6 25 4 27 C3.75712511 29.44012949 3.75712511 29.44012949 3.875 32.125 C3.89304688 33.03507812 3.91109375 33.94515625 3.9296875 34.8828125 C3.95289063 35.58148438 3.97609375 36.28015625 4 37 C3.01 37.495 3.01 37.495 2 38 C1.01 37.505 1.01 37.505 0 37 C2.35277269 39.72426311 4.62496331 40.8141763 8 42 C7.38125 42.474375 6.7625 42.94875 6.125 43.4375 C3.17204015 46.99842217 2.74330717 50.51617933 2 55 C1.5 58 1.5 58 1 60 C0.01 60.495 0.01 60.495 -1 61 C-1.40729228 63.32156597 -1.74438677 65.6568787 -2 68 C-2.66 68 -3.32 68 -4 68 C-3.505 68.99 -3.505 68.99 -3 70 C-2.19175781 69.7834375 -2.19175781 69.7834375 -1.3671875 69.5625 C5.50538767 68.01132316 12.23595104 67.77786578 19.25 67.75 C20.66949951 67.73646484 20.66949951 67.73646484 22.11767578 67.72265625 C27.46940232 67.74527316 31.93934975 68.2385582 37 70 C37.5625 71.9375 37.5625 71.9375 38 74 C37.67 74.33 37.34 74.66 37 75 C35.845 74.855625 34.69 74.71125 33.5 74.5625 C28.76476112 73.98298606 24.07696245 73.8488895 19.3125 73.8125 C18.58804688 73.79968994 17.86359375 73.78687988 17.1171875 73.77368164 C12.65081653 73.76497427 9.17444889 74.49009295 5 76 C2.28938725 76.22663986 -0.27148292 76.0940868 -3 76 C-3.33 75.01 -3.66 74.02 -4 73 C-4.68707555 75.49064888 -5 77.37886292 -5 80 C-5.99 80.495 -5.99 80.495 -7 81 C-8.09036928 83.9737344 -8.03864166 84.88407501 -7 88 C-7.99 88 -8.98 88 -10 88 C-10 88.66 -10 89.32 -10 90 C-9.34 90.33 -8.68 90.66 -8 91 C-9.98 91.99 -9.98 91.99 -12 93 C-11.505 93.99 -11.505 93.99 -11 95 C-8.1840151 95.46898963 -8.1840151 95.46898963 -4.9375 95.625 C-3.83277344 95.69976562 -2.72804688 95.77453125 -1.58984375 95.8515625 C-0.30787109 95.92503906 -0.30787109 95.92503906 1 96 C1 96.33 1 96.66 1 97 C-9.89 97 -20.78 97 -32 97 C-32 89.91953667 -31.0478255 86.31419777 -26 81.1875 C-22.59572686 77.88380893 -22.59572686 77.88380893 -20 74 C-18.515 73.505 -18.515 73.505 -17 73 C-17 71.35 -17 69.7 -17 68 C-18.32 67.67 -19.64 67.34 -21 67 C-19.515 66.505 -19.515 66.505 -18 66 C-17.87625 65.195625 -17.7525 64.39125 -17.625 63.5625 C-17.41875 62.716875 -17.2125 61.87125 -17 61 C-16.01 60.505 -16.01 60.505 -15 60 C-14.9175 59.401875 -14.835 58.80375 -14.75 58.1875 C-14 56 -14 56 -10.9375 54.375 C-7.84146066 52.37481275 -7.84146066 52.37481275 -7.5 49.76953125 C-7.36447856 44.17080178 -8.29491605 39.88995945 -11 35 C-11.66 34.67 -12.32 34.34 -13 34 C-13 32 -13 32 -11 30 C-11 29.01 -11 28.02 -11 27 C-10.56611727 24.25207604 -9.9967045 21.99249358 -8.875 19.4375 C-7.75346708 17.07501845 -7.75346708 17.07501845 -8.625 14.9375 C-8.74875 14.298125 -8.8725 13.65875 -9 13 C-8.360625 12.38125 -7.72125 11.7625 -7.0625 11.125 C-4.65948206 9.10226498 -4.65948206 9.10226498 -4.75 5.75 C-4.87375 4.38875 -4.87375 4.38875 -5 3 C-4.360625 2.87625 -3.72125 2.7525 -3.0625 2.625 C-2.381875 2.41875 -1.70125 2.2125 -1 2 C-0.67 1.34 -0.34 0.68 0 0 Z " fill="#545554" transform="translate(74,10)"/>
<path d="M0 0 C-0.61875 0.474375 -1.2375 0.94875 -1.875 1.4375 C-4.82795985 4.99842217 -5.25669283 8.51617933 -6 13 C-6.5 16 -6.5 16 -7 18 C-7.99 18.495 -7.99 18.495 -9 19 C-9.40729228 21.32156597 -9.74438677 23.6568787 -10 26 C-10.66 26 -11.32 26 -12 26 C-11.67 26.66 -11.34 27.32 -11 28 C-10.46117188 27.855625 -9.92234375 27.71125 -9.3671875 27.5625 C-2.49461233 26.01132316 4.23595104 25.77786578 11.25 25.75 C12.66949951 25.73646484 12.66949951 25.73646484 14.11767578 25.72265625 C19.46940232 25.74527316 23.93934975 26.2385582 29 28 C29.5625 29.9375 29.5625 29.9375 30 32 C29.67 32.33 29.34 32.66 29 33 C27.845 32.855625 26.69 32.71125 25.5 32.5625 C20.76476112 31.98298606 16.07696245 31.8488895 11.3125 31.8125 C10.22582031 31.79328491 10.22582031 31.79328491 9.1171875 31.77368164 C4.65081653 31.76497427 1.17444889 32.49009295 -3 34 C-5.71061275 34.22663986 -8.27148292 34.0940868 -11 34 C-11.33 33.01 -11.66 32.02 -12 31 C-12.68707555 33.49064888 -13 35.37886292 -13 38 C-13.99 38.495 -13.99 38.495 -15 39 C-16.09036928 41.9737344 -16.03864166 42.88407501 -15 46 C-15.99 46 -16.98 46 -18 46 C-18 46.66 -18 47.32 -18 48 C-17.34 48.33 -16.68 48.66 -16 49 C-17.32 49.66 -18.64 50.32 -20 51 C-19.67 51.66 -19.34 52.32 -19 53 C-16.1840151 53.46898963 -16.1840151 53.46898963 -12.9375 53.625 C-11.83277344 53.69976562 -10.72804688 53.77453125 -9.58984375 53.8515625 C-8.73519531 53.90054688 -7.88054687 53.94953125 -7 54 C-7 54.33 -7 54.66 -7 55 C-17.89 55 -28.78 55 -40 55 C-40 47.95782311 -39.05733684 44.31132832 -34.0625 39.1875 C-33.16660156 38.25292969 -32.27070312 37.31835938 -31.34765625 36.35546875 C-29.89954633 34.90253983 -28.45052142 33.45052142 -27 32 C-26.375 35.375 -26.375 35.375 -26 39 C-26.66 39.66 -27.32 40.32 -28 41 C-26.35 41 -24.7 41 -23 41 C-22.896875 40.38125 -22.79375 39.7625 -22.6875 39.125 C-22 37 -22 37 -19 35 C-19.185625 34.401875 -19.37125 33.80375 -19.5625 33.1875 C-20 31 -20 31 -19 28 C-19 27.01 -19 26.02 -19 25 C-18.01 24.67 -17.02 24.34 -16 24 C-16.061875 23.21625 -16.12375 22.4325 -16.1875 21.625 C-16.0946875 20.325625 -16.0946875 20.325625 -16 19 C-15.01 18.34 -14.02 17.68 -13 17 C-13.66 16.34 -14.32 15.68 -15 15 C-14.34 14.01 -13.68 13.02 -13 12 C-12.835 11.154375 -12.67 10.30875 -12.5 9.4375 C-12 7 -12 7 -10 5 C-10.33 4.34 -10.66 3.68 -11 3 C-10.34 2.34 -9.68 1.68 -9 1 C-9 0.34 -9 -0.32 -9 -1 C-5.38055101 -2.34053666 -3.42632833 -1.61798838 0 0 Z " fill="#606160" transform="translate(82,52)"/>
<path d="M0 0 C5.61 0.66 11.22 1.32 17 2 C15.35 3.65 13.7 5.3 12 7 C11.59270772 9.32156597 11.25561323 11.6568787 11 14 C10.01268258 15.34275169 9.01405257 16.67732273 8 18 C7.74875174 20.66761764 7.74875174 20.66761764 8 23 C7.01 23.33 6.02 23.66 5 24 C4.67 27.63 4.34 31.26 4 35 C2.515 35.495 2.515 35.495 1 36 C1.99 36.99 2.98 37.98 4 39 C3.360625 39.53625 2.72125 40.0725 2.0625 40.625 C-1.00840618 44.16119499 -1 47.44880174 -1 52 C-2.5 53.6875 -2.5 53.6875 -4 55 C-3.34 55.66 -2.68 56.32 -2 57 C-2.99 58.32 -3.98 59.64 -5 61 C-4.01 62.32 -3.02 63.64 -2 65 C-7.94 65.99 -7.94 65.99 -14 67 C-14 66.01 -14 65.02 -14 64 C-13.34 64 -12.68 64 -12 64 C-12.04125 62.88625 -12.0825 61.7725 -12.125 60.625 C-12 57 -12 57 -10 55 C-9.39390377 52.97087478 -9.39390377 52.97087478 -9 50.6875 C-8.30251798 47.26599372 -7.4144898 44.20617688 -6 41 C-5.67 40.01 -5.34 39.02 -5 38 C-6.2375 37.319375 -6.2375 37.319375 -7.5 36.625 C-8.325 36.08875 -9.15 35.5525 -10 35 C-10 34.34 -10 33.68 -10 33 C-8.515 32.505 -8.515 32.505 -7 32 C-7.02320312 31.22914062 -7.04640625 30.45828125 -7.0703125 29.6640625 C-7.08835937 28.66117188 -7.10640625 27.65828125 -7.125 26.625 C-7.14820312 25.62726562 -7.17140625 24.62953125 -7.1953125 23.6015625 C-7 21 -7 21 -5 19 C-5 17.68 -5 16.36 -5 15 C-5 11 -5 11 -3 9 C-2.01 9 -1.02 9 0 9 C-0.20625 8.401875 -0.4125 7.80375 -0.625 7.1875 C-1 5 -1 5 1 2 C0.67 1.34 0.34 0.68 0 0 Z " fill="#767675" transform="translate(84,14)"/>
<path d="M0 0 C4.29 0.33 8.58 0.66 13 1 C12.67 2.65 12.34 4.3 12 6 C11.34 6 10.68 6 10 6 C9.87625 6.639375 9.7525 7.27875 9.625 7.9375 C9.41875 8.618125 9.2125 9.29875 9 10 C8.01 10.495 8.01 10.495 7 11 C7.99 11.33 8.98 11.66 10 12 C10.33 13.65 10.66 15.3 11 17 C10.071875 17.12375 10.071875 17.12375 9.125 17.25 C6.85485809 17.77332092 6.85485809 17.77332092 6.12109375 19.77734375 C4.77142401 22.45316982 3.03027904 24.17414319 0.9375 26.3125 C-2.57845151 30.1648151 -3.89304419 32.65220931 -4 38 C-4.33 38.99 -4.66 39.98 -5 41 C-9.29 40.67 -13.58 40.34 -18 40 C-17.73958333 38.01432292 -17.47916667 36.02864583 -17.21875 34.04296875 C-16.946767 31.84528294 -16.946767 31.84528294 -17 29 C-15.67267046 27.32854798 -14.33773782 25.66313351 -13 24 C-11.24718435 21.04553736 -9.612344 18.03305694 -8 15 C-7.34 15 -6.68 15 -6 15 C-6 14.34 -6 13.68 -6 13 C-5.01 13 -4.02 13 -3 13 C-2.87625 11.783125 -2.7525 10.56625 -2.625 9.3125 C-2.25468643 5.67108326 -1.44852637 3.62131592 0 0 Z " fill="#343634" transform="translate(47,66)"/>
<path d="M0 0 C0.66 0.66 1.32 1.32 2 2 C0 5 0 5 -3 7 C-3.67147918 9.44063441 -3.67147918 9.44063441 -4 12 C-4.33 12.99 -4.66 13.98 -5 15 C-5.99 15 -6.98 15 -8 15 C-7.608125 15.70125 -7.21625 16.4025 -6.8125 17.125 C-6 20 -6 20 -7.3125 23 C-7.869375 23.99 -8.42625 24.98 -9 26 C-9.72306128 28.82651226 -10 31.07611242 -10 34 C-10.66 34 -11.32 34 -12 34 C-11.34 34.66 -10.68 35.32 -10 36 C-8.3125 37.9375 -8.3125 37.9375 -7 40 C-7.33 40.99 -7.66 41.98 -8 43 C-8.8971875 42.0409375 -8.8971875 42.0409375 -9.8125 41.0625 C-12.66852187 38.36967938 -14.48218611 38.03835658 -18.375 37.75 C-22.18872515 38.01301553 -23.95161362 38.78299172 -27 41 C-26.835 40.401875 -26.67 39.80375 -26.5 39.1875 C-25.8885876 36.88655664 -25.8885876 36.88655664 -26 34 C-25.34 33.34 -24.68 32.68 -24 32 C-24.185625 31.38125 -24.37125 30.7625 -24.5625 30.125 C-24.7790625 29.073125 -24.7790625 29.073125 -25 28 C-24.04701223 26.63266972 -23.04625409 25.29735507 -22 24 C-22 23.01 -22 22.02 -22 21 C-21.35191436 19.65753688 -20.68177416 18.32567199 -20 17 C-19.67 16.01 -19.34 15.02 -19 14 C-18.1686076 11.5058228 -17.24218059 9.30690682 -16 7 C-16.66 6.34 -17.32 5.68 -18 5 C-12.45424306 -0.05642545 -7.34555056 -0.42378176 0 0 Z " fill="#252524" transform="translate(73,8)"/>
<path d="M0 0 C-0.66 0 -1.32 0 -2 0 C-2.33 2.97 -2.66 5.94 -3 9 C-3.66 9 -4.32 9 -5 9 C-4.79375 9.763125 -4.5875 10.52625 -4.375 11.3125 C-4 14 -4 14 -6 17 C-6.165 18.03125 -6.33 19.0625 -6.5 20.125 C-6.665 21.07375 -6.83 22.0225 -7 23 C-7.66 23.33 -8.32 23.66 -9 24 C-9 25.32 -9 26.64 -9 28 C-9.66 28 -10.32 28 -11 28 C-11.103125 28.928125 -11.20625 29.85625 -11.3125 30.8125 C-13.23833732 44.23833732 -13.23833732 44.23833732 -17 48 C-17.46006346 50.20250992 -17.46006346 50.20250992 -17.625 52.625 C-17.69976562 53.44226563 -17.77453125 54.25953125 -17.8515625 55.1015625 C-17.92503906 56.04128906 -17.92503906 56.04128906 -18 57 C-18.66 57 -19.32 57 -20 57 C-20.103125 57.763125 -20.20625 58.52625 -20.3125 59.3125 C-21.05039701 62.19700648 -21.53243984 63.35495989 -24 65 C-26.1875 64.6875 -26.1875 64.6875 -28 64 C-27.835 63.236875 -27.67 62.47375 -27.5 61.6875 C-26.90854604 58.96403764 -26.90854604 58.96403764 -27 56 C-25.68628846 50.84620859 -23.91189014 45.95353354 -22 41 C-22.66 41 -23.32 41 -24 41 C-23.67 40.01 -23.34 39.02 -23 38 C-22.01 37.505 -22.01 37.505 -21 37 C-20.25976679 35.02604477 -19.61238899 33.01728138 -19 31 C-18.1975956 28.71532145 -17.39478975 26.43084236 -16.5859375 24.1484375 C-15.8245884 21.72797497 -15.8245884 21.72797497 -16 18 C-15.34 17.34 -14.68 16.68 -14 16 C-13.690625 15.071875 -13.38125 14.14375 -13.0625 13.1875 C-12.0348238 10.10447139 -10.70671414 7.74558362 -9 5 C-8.67 4.01 -8.34 3.02 -8 2 C-3.63934426 -1.21311475 -3.63934426 -1.21311475 0 0 Z " fill="#A8A8A7" transform="translate(121,11)"/>
<path d="M0 0 C-0.763125 1.010625 -1.52625 2.02125 -2.3125 3.0625 C-5.36927973 7.34372842 -8 11.60687852 -8 17 C-8.66 17.66 -9.32 18.32 -10 19 C-10.60442584 21.09766105 -10.60442584 21.09766105 -11 23.4375 C-11.60457053 26.71405634 -12.086971 28.1304565 -14 31 C-14.33 32.010625 -14.66 33.02125 -15 34.0625 C-16 37 -16 37 -18 39 C-17.34 39.66 -16.68 40.32 -16 41 C-16.680625 42.5159375 -16.680625 42.5159375 -17.375 44.0625 C-19.31017468 48.58402189 -21 53.03736713 -21 58 C-21.31088368 59.67099977 -21.64080332 61.33871537 -22 63 C-20.68 63.66 -19.36 64.32 -18 65 C-21.96 65 -25.92 65 -30 65 C-31.14274621 61.57176137 -30.83857544 60.88717985 -29.625 57.625 C-28.48217681 54.42613873 -27.54279125 51.36530577 -27 48 C-26.34 48 -25.68 48 -25 48 C-24.67 44.04 -24.34 40.08 -24 36 C-23.34 36 -22.68 36 -22 36 C-22.04125 35.236875 -22.0825 34.47375 -22.125 33.6875 C-22 31 -22 31 -20 28 C-19.45417421 26.38981392 -18.95786661 24.76237081 -18.5 23.125 C-17.7200068 20.39304412 -16.94022847 17.86158173 -15.8125 15.25 C-14.79124612 12.42191233 -14.86130175 9.98201244 -15 7 C-14.01 6.67 -13.02 6.34 -12 6 C-11.67 5.01 -11.34 4.02 -11 3 C-9.00390625 1.796875 -9.00390625 1.796875 -6.5625 0.75 C-5.75941406 0.39421875 -4.95632812 0.0384375 -4.12890625 -0.328125 C-2 -1 -2 -1 0 0 Z " fill="#959594" transform="translate(116,12)"/>
<path d="M0 0 C-0.474375 0.515625 -0.94875 1.03125 -1.4375 1.5625 C-3.21000806 3.95637022 -3.21000806 3.95637022 -3.4375 7.0625 C-4.07254914 11.50784399 -5.4565115 15.27482953 -7.0625 19.44921875 C-7.86496335 21.63258777 -8.46708143 23.74099117 -9 26 C-9.65509503 28.00382009 -10.31974363 30.00458132 -11 32 C-11.66 32 -12.32 32 -13 32 C-12.979375 33.2375 -12.95875 34.475 -12.9375 35.75 C-12.93233319 38.6640825 -13.06984442 41.20953327 -14 44 C-14.66 44 -15.32 44 -16 44 C-16.04898438 44.56847656 -16.09796875 45.13695312 -16.1484375 45.72265625 C-16.22320312 46.49480469 -16.29796875 47.26695313 -16.375 48.0625 C-16.44460937 48.81660156 -16.51421875 49.57070312 -16.5859375 50.34765625 C-17.09749423 53.62451493 -18.08887409 56.81105932 -19 60 C-13.39 60.33 -7.78 60.66 -2 61 C-2 61.33 -2 61.66 -2 62 C-5.95819611 62.08678303 -9.91614934 62.14031733 -13.875 62.1875 C-15.00292969 62.21263672 -16.13085938 62.23777344 -17.29296875 62.26367188 C-18.90751953 62.27817383 -18.90751953 62.27817383 -20.5546875 62.29296875 C-22.04718018 62.31653442 -22.04718018 62.31653442 -23.56982422 62.34057617 C-24.77276123 62.17199097 -24.77276123 62.17199097 -26 62 C-26.66 61.01 -27.32 60.02 -28 59 C-26.68 57.68 -25.36 56.36 -24 55 C-24.66 54.34 -25.32 53.68 -26 53 C-26 52.34 -26 51.68 -26 51 C-24.68 50.34 -23.36 49.68 -22 49 C-22.495 47.515 -22.495 47.515 -23 46 C-22.125 43 -22.125 43 -21 40 C-19.94729537 37.36893239 -19.94729537 37.36893239 -20 36 C-20 34 -20 34 -18 32 C-18 31.236875 -18 30.47375 -18 29.6875 C-18 25.59070953 -16.88646974 22.88646974 -14 20 C-14.020625 19.21625 -14.04125 18.4325 -14.0625 17.625 C-14 15 -14 15 -12.5625 13.125 C-9.91000981 9.51761334 -10 5.36321182 -10 1 C-8.71073008 0.63720544 -7.41846728 0.28503302 -6.125 -0.0625 C-5.04605469 -0.35833984 -5.04605469 -0.35833984 -3.9453125 -0.66015625 C-2 -1 -2 -1 0 0 Z " fill="#858585" transform="translate(105,16)"/>
<path d="M0 0 C4.22589028 1.62534242 6.61744869 3.16749604 9 7 C9.77392241 10.44900206 9.76407652 13.54771264 9 17 C6.61937703 20.3447382 3.69568201 21.70534998 -0.29296875 22.3984375 C-4.96453257 22.60188919 -8.26869086 22.03168867 -12 19 C-13.85269921 15.29460158 -13.46444489 11.04376687 -13 7 C-10.26879353 0.51500264 -6.73742236 -0.44916149 0 0 Z " fill="#030303" transform="translate(58,45)"/>
<path d="M0 0 C3.22618733 2.0790985 4.8669302 3.80039529 7 7 C7.45681807 11.11136265 7.45731782 13.26502493 5.25 16.8125 C1.90081714 20.06865 0.1932582 20.89345909 -4.5 21.3125 C-8.19730174 20.98238377 -9.46514792 20.6287355 -12 18 C-14.25851373 14.95100646 -14.47153533 11.72094873 -14.39453125 7.96875 C-13.72206358 4.61306974 -11.59717314 3.04063604 -9 1 C-5.89951072 -0.55024464 -3.42105782 -0.28992015 0 0 Z " fill="#0B0B0B" transform="translate(129,45)"/>
<path d="M0 0 C3.3 0.66 6.6 1.32 10 2 C8.68 2.33 7.36 2.66 6 3 C5.86722656 3.60328125 5.73445313 4.2065625 5.59765625 4.828125 C5.42105469 5.62734375 5.24445313 6.4265625 5.0625 7.25 C4.80146484 8.43335938 4.80146484 8.43335938 4.53515625 9.640625 C4.35855469 10.41921875 4.18195313 11.1978125 4 12 C3.81244141 13.07507813 3.81244141 13.07507813 3.62109375 14.171875 C3 16 3 16 0 18 C0.66 18 1.32 18 2 18 C0.25 22.875 0.25 22.875 -2 24 C-1.34 24.99 -0.68 25.98 0 27 C-0.66 27.61875 -1.32 28.2375 -2 28.875 C-4.2284549 30.75637427 -4.2284549 30.75637427 -4 33 C-4.66 33 -5.32 33 -6 33 C-6 33.763125 -6 34.52625 -6 35.3125 C-6 37.20833333 -6 39.10416667 -6 41 C-6.99 41.495 -6.99 41.495 -8 42 C-8.45375 40.865625 -8.9075 39.73125 -9.375 38.5625 C-10.57095806 34.95278308 -10.57095806 34.95278308 -13 34 C-13 32 -13 32 -11 30 C-11 29.01 -11 28.02 -11 27 C-10.56611727 24.25207604 -9.9967045 21.99249358 -8.875 19.4375 C-7.75346708 17.07501845 -7.75346708 17.07501845 -8.625 14.9375 C-8.74875 14.298125 -8.8725 13.65875 -9 13 C-8.360625 12.38125 -7.72125 11.7625 -7.0625 11.125 C-4.65948206 9.10226498 -4.65948206 9.10226498 -4.75 5.75 C-4.87375 4.38875 -4.87375 4.38875 -5 3 C-4.360625 2.87625 -3.72125 2.7525 -3.0625 2.625 C-2.381875 2.41875 -1.70125 2.2125 -1 2 C-0.67 1.34 -0.34 0.68 0 0 Z " fill="#474845" transform="translate(74,10)"/>
<path d="M0 0 C0.33 1.32 0.66 2.64 1 4 C1.71285156 3.86722656 2.42570312 3.73445313 3.16015625 3.59765625 C8.43010955 2.62594212 13.6880905 1.7082546 19 1 C16.68143083 2.54571278 14.49361571 3.79618552 12 5 C12 5.99 12 6.98 12 8 C11.01 8.495 11.01 8.495 10 9 C10.33 10.65 10.66 12.3 11 14 C10.01 14 9.02 14 8 14 C8.020625 15.093125 8.04125 16.18625 8.0625 17.3125 C8 21 8 21 7 24 C2.38 24 -2.24 24 -7 24 C-7 20.88742431 -6.82638376 18.89234315 -6 16 C-5.01 16 -4.02 16 -3 16 C-3 15.34 -3 14.68 -3 14 C-3.66 13.67 -4.32 13.34 -5 13 C-4.39816251 10.97954558 -3.72693904 8.97888961 -3 7 C-2.34 6.67 -1.68 6.34 -1 6 C-1.20625 5.38125 -1.4125 4.7625 -1.625 4.125 C-1.74875 3.42375 -1.8725 2.7225 -2 2 C-1.34 1.34 -0.68 0.68 0 0 Z " fill="#858585" transform="translate(70,82)"/>
<path d="M0 0 C3.63 0.33 7.26 0.66 11 1 C9.68 1.33 8.36 1.66 7 2 C7 3.65 7 5.3 7 7 C6.01 7.495 6.01 7.495 5 8 C4.40929986 9.94603274 4.40929986 9.94603274 4 12 C3.67 12.66 3.34 13.32 3 14 C3.66 14.33 4.32 14.66 5 15 C4.505 15.680625 4.01 16.36125 3.5 17.0625 C1.7252388 19.98835423 1.7252388 19.98835423 2 23.625 C2 27 2 27 0.5625 28.625 C-0.2109375 29.305625 -0.2109375 29.305625 -1 30 C-1.2165625 31.2684375 -1.2165625 31.2684375 -1.4375 32.5625 C-2 35 -2 35 -3.8125 36.4375 C-6 37 -6 37 -8.25 36.125 C-8.8275 35.75375 -9.405 35.3825 -10 35 C-10 34.34 -10 33.68 -10 33 C-8.515 32.505 -8.515 32.505 -7 32 C-7.02320312 31.22914062 -7.04640625 30.45828125 -7.0703125 29.6640625 C-7.08835937 28.66117188 -7.10640625 27.65828125 -7.125 26.625 C-7.14820312 25.62726562 -7.17140625 24.62953125 -7.1953125 23.6015625 C-7 21 -7 21 -5 19 C-5 17.68 -5 16.36 -5 15 C-5 11 -5 11 -3 9 C-2.01 9 -1.02 9 0 9 C-0.20625 8.401875 -0.4125 7.80375 -0.625 7.1875 C-1 5 -1 5 1 2 C0.67 1.34 0.34 0.68 0 0 Z " fill="#676767" transform="translate(84,14)"/>
<path d="M0 0 C-1 3 -1 3 -4 5 C-4.67147918 7.44063441 -4.67147918 7.44063441 -5 10 C-5.33 10.99 -5.66 11.98 -6 13 C-6.99 13 -7.98 13 -9 13 C-8.608125 13.70125 -8.21625 14.4025 -7.8125 15.125 C-7 18 -7 18 -8.3125 21 C-9.1478125 22.485 -9.1478125 22.485 -10 24 C-10.72306128 26.82651226 -11 29.07611242 -11 32 C-11.66 32 -12.32 32 -13 32 C-12.34 32.66 -11.68 33.32 -11 34 C-9.3125 35.9375 -9.3125 35.9375 -8 38 C-8.33 38.99 -8.66 39.98 -9 41 C-9.515625 40.401875 -10.03125 39.80375 -10.5625 39.1875 C-13.56533687 36.4926464 -16.24873609 35.44279381 -20 34 C-19.5359375 32.63875 -19.5359375 32.63875 -19.0625 31.25 C-18.27158561 28.83073246 -17.59577421 26.46820744 -17 24 C-16 21 -16 21 -13 19 C-13.66 18.34 -14.32 17.68 -15 17 C-14.525625 16.2575 -14.05125 15.515 -13.5625 14.75 C-11.9368975 12.17532911 -11.9368975 12.17532911 -11.4375 9.75 C-11.293125 9.1725 -11.14875 8.595 -11 8 C-10.34 7.67 -9.68 7.34 -9 7 C-9.99 6.34 -10.98 5.68 -12 5 C-11.01 4.34 -10.02 3.68 -9 3 C-9.33 2.34 -9.66 1.68 -10 1 C-6.1496895 -1.56687367 -4.41430237 -0.83288724 0 0 Z " fill="#333533" transform="translate(74,10)"/>
<path d="M0 0 C4.29 0.33 8.58 0.66 13 1 C12.67 2.65 12.34 4.3 12 6 C11.34 6 10.68 6 10 6 C9.87625 6.639375 9.7525 7.27875 9.625 7.9375 C9.41875 8.618125 9.2125 9.29875 9 10 C8.01 10.495 8.01 10.495 7 11 C7.99 11.33 8.98 11.66 10 12 C10.33 13.65 10.66 15.3 11 17 C10.01 17 9.02 17 8 17 C8 16.01 8 15.02 8 14 C3.34175659 14.84879056 0.84033286 17.32427513 -2 21 C-2.94888605 23.7144047 -2.94888605 23.7144047 -3 26 C-3.66 25.67 -4.32 25.34 -5 25 C-6.56418697 17.04871626 -6.56418697 17.04871626 -4 13 C-2.47718183 8.7170739 -1.22499392 4.3749783 0 0 Z " fill="#343635" transform="translate(47,66)"/>
<path d="M0 0 C0.96357422 -0.01224609 1.92714844 -0.02449219 2.91992188 -0.03710938 C8.37338898 -0.04829215 12.90998394 0.37444497 18.0625 2.1875 C18.625 4.125 18.625 4.125 19.0625 6.1875 C18.7325 6.5175 18.4025 6.8475 18.0625 7.1875 C16.9075 7.043125 15.7525 6.89875 14.5625 6.75 C2.8435759 5.31312555 -9.22674809 6.0469746 -20.9375 7.1875 C-20.9375 6.5275 -20.9375 5.8675 -20.9375 5.1875 C-20.2775 5.1875 -19.6175 5.1875 -18.9375 5.1875 C-18.9375 4.5275 -18.9375 3.8675 -18.9375 3.1875 C-18.2775 3.1875 -17.6175 3.1875 -16.9375 3.1875 C-16.9375 2.5275 -16.9375 1.8675 -16.9375 1.1875 C-11.29004734 -0.00294112 -5.74332626 0.00382633 0 0 Z " fill="#080808" transform="translate(92.9375,77.8125)"/>
<path d="M0 0 C0.99 0.33 1.98 0.66 3 1 C2.01 2.485 2.01 2.485 1 4 C0.75849227 6.51584891 0.75849227 6.51584891 0.875 9.1875 C0.90207031 10.53908203 0.90207031 10.53908203 0.9296875 11.91796875 C0.95289063 12.60503906 0.97609375 13.29210937 1 14 C-0.32 14 -1.64 14 -3 14 C-3 18.62 -3 23.24 -3 28 C-5.97 27.67 -8.94 27.34 -12 27 C-11.73958333 25.01432292 -11.47916667 23.02864583 -11.21875 21.04296875 C-10.946767 18.84528294 -10.946767 18.84528294 -11 16 C-9.67267046 14.32854798 -8.33773782 12.66313351 -7 11 C-5.24718435 8.04553736 -3.612344 5.03305694 -2 2 C-1.34 2 -0.68 2 0 2 C0 1.34 0 0.68 0 0 Z " fill="#272726" transform="translate(41,79)"/>
<path d="M0 0 C2.3828125 0.2421875 2.3828125 0.2421875 5.125 0.875 C6.03507812 1.07867187 6.94515625 1.28234375 7.8828125 1.4921875 C8.58148438 1.65976563 9.28015625 1.82734375 10 2 C8.68 2.33 7.36 2.66 6 3 C5.86722656 3.60328125 5.73445313 4.2065625 5.59765625 4.828125 C5.42105469 5.62734375 5.24445313 6.4265625 5.0625 7.25 C4.88847656 8.03890625 4.71445313 8.8278125 4.53515625 9.640625 C4.35855469 10.41921875 4.18195313 11.1978125 4 12 C3.87496094 12.71671875 3.74992187 13.4334375 3.62109375 14.171875 C3 16 3 16 0 18 C0.66 18 1.32 18 2 18 C1.01 20.475 1.01 20.475 0 23 C-1.65 23 -3.3 23 -5 23 C-5 20.69 -5 18.38 -5 16 C-5.66 15.67 -6.32 15.34 -7 15 C-4.36 13.02 -1.72 11.04 1 9 C-0.32 7.68 -1.64 6.36 -3 5 C-2 2 -2 2 0 0 Z M-2 8 C0 9 0 9 0 9 Z " fill="#494A47" transform="translate(74,10)"/>
<path d="M0 0 C0.33 1.32 0.66 2.64 1 4 C2.65 4 4.3 4 6 4 C5.01 4.66 4.02 5.32 3 6 C3.33 7.65 3.66 9.3 4 11 C3.01 11.495 3.01 11.495 2 12 C1.34 11.67 0.68 11.34 0 11 C0.66 12.32 1.32 13.64 2 15 C1.01 15.33 0.02 15.66 -1 16 C-0.505 16.45375 -0.01 16.9075 0.5 17.375 C2 19 2 19 2 21 C1.34 21 0.68 21 0 21 C0.33 21.99 0.66 22.98 1 24 C-1.64 24 -4.28 24 -7 24 C-7 20.88742431 -6.82638376 18.89234315 -6 16 C-5.01 16 -4.02 16 -3 16 C-3 15.34 -3 14.68 -3 14 C-3.66 13.67 -4.32 13.34 -5 13 C-4.39816251 10.97954558 -3.72693904 8.97888961 -3 7 C-2.34 6.67 -1.68 6.34 -1 6 C-1.20625 5.38125 -1.4125 4.7625 -1.625 4.125 C-1.74875 3.42375 -1.8725 2.7225 -2 2 C-1.34 1.34 -0.68 0.68 0 0 Z " fill="#737473" transform="translate(70,82)"/>
<path d="M0 0 C-0.33 0.66 -0.66 1.32 -1 2 C-1.928125 2.1546875 -1.928125 2.1546875 -2.875 2.3125 C-5.21168708 2.8530482 -5.21168708 2.8530482 -6.75 5.1875 C-8.16162605 8.3636586 -8.0763011 10.56645036 -8 14 C-8.66 14.66 -9.32 15.32 -10 16 C-10.04080783 17.99958364 -10.04254356 20.00045254 -10 22 C-11 23 -11 23 -14.0625 23.0625 C-15.031875 23.041875 -16.00125 23.02125 -17 23 C-18.32554118 19.02337646 -17.34765994 16.90112089 -16 13 C-15.34 12.34 -14.68 11.68 -14 11 C-13.95875 9.88625 -13.9175 8.7725 -13.875 7.625 C-13 4 -13 4 -11.3359375 2.65234375 C-7.55618207 0.67752771 -4.33451981 -0.54181498 0 0 Z " fill="#969695" transform="translate(94,83)"/>
<path d="M0 0 C2.97 0.33 5.94 0.66 9 1 C8.67 1.99 8.34 2.98 8 4 C7.34 4 6.68 4 6 4 C6 4.66 6 5.32 6 6 C5.34 6 4.68 6 4 6 C4 6.66 4 7.32 4 8 C3.34 8 2.68 8 2 8 C2 8.99 2 9.98 2 11 C2.66 11.33 3.32 11.66 4 12 C3.34 12 2.68 12 2 12 C2.66 13.32 3.32 14.64 4 16 C3.34 16 2.68 16 2 16 C2 16.99 2 17.98 2 19 C7.28 19 12.56 19 18 19 C18 19.33 18 19.66 18 20 C10.74 20 3.48 20 -4 20 C-2.74399287 15.60397503 -1.44153862 11.32461585 0 7 C0.34976758 5.67088318 0.69096017 4.33917261 1 3 C0.34 3 -0.32 3 -1 3 C-0.67 2.01 -0.34 1.02 0 0 Z " fill="#BABBB9" transform="translate(102,85)"/>
<path d="M0 0 C0 1.65 0 3.3 0 5 C-0.66 5 -1.32 5 -2 5 C-2 5.66 -2 6.32 -2 7 C-2.66 7 -3.32 7 -4 7 C-4.2475 7.7425 -4.495 8.485 -4.75 9.25 C-6.12389704 12.27257349 -7.40563834 13.93977162 -10 16 C-11.32 16 -12.64 16 -14 16 C-14.33 15.01 -14.66 14.02 -15 13 C-11.75701284 7.05452353 -7.1132888 0 0 0 Z " fill="#040404" transform="translate(43,74)"/>
<path d="M0 0 C1.42944945 2.35438733 2.08661261 3.48032433 1.625 6.25 C1.41875 6.8275 1.2125 7.405 1 8 C-0.32 8.33 -1.64 8.66 -3 9 C-3.99 12.96 -4.98 16.92 -6 21 C-6.66 21 -7.32 21 -8 21 C-7.34 21.66 -6.68 22.32 -6 23 C-7.98 23 -9.96 23 -12 23 C-12 15.91953667 -11.0478255 12.31419777 -6 7.1875 C-2.59572686 3.88380893 -2.59572686 3.88380893 0 0 Z " fill="#424341" transform="translate(54,84)"/>
<path d="M0 0 C0.3125 2.13671875 0.3125 2.13671875 0 5 C-1.61412134 7.13582841 -3.13761902 8.92746844 -5 10.8125 C-5.47695312 11.31458984 -5.95390625 11.81667969 -6.4453125 12.33398438 C-7.619201 13.5665673 -8.80816886 14.78475789 -10 16 C-11.32 15.67 -12.64 15.34 -14 15 C-13.5097503 10.38832905 -11.76600028 8.08846184 -8.6875 4.6875 C-7.90761719 3.80449219 -7.12773437 2.92148438 -6.32421875 2.01171875 C-4 0 -4 0 0 0 Z " fill="#060606" transform="translate(138,76)"/>
<path d="M0 0 C1.65 0.33 3.3 0.66 5 1 C4.49096406 5.45406449 2.92257804 7.65991082 0 11 C-0.7425 11.928125 -1.485 12.85625 -2.25 13.8125 C-2.8275 14.534375 -3.405 15.25625 -4 16 C-5.32 15.67 -6.64 15.34 -8 15 C-7.4520917 10.7170548 -5.97567196 8.14864359 -3.4375 4.6875 C-2.79683594 3.80449219 -2.15617188 2.92148438 -1.49609375 2.01171875 C-0.75552734 1.01591797 -0.75552734 1.01591797 0 0 Z " fill="#1A1A19" transform="translate(146,77)"/>
<path d="M0 0 C0.66 0 1.32 0 2 0 C2 1.65 2 3.3 2 5 C1.34 5 0.68 5 0 5 C-0.33 5.66 -0.66 6.32 -1 7 C-1.66 7 -2.32 7 -3 7 C-1.125 1.125 -1.125 1.125 0 0 Z M-4 7 C-2 9 -2 9 -2 13 C-2.99 12.67 -3.98 12.34 -5 12 C-4.67 10.35 -4.34 8.7 -4 7 Z M-7 13 C-6.01 13 -5.02 13 -4 13 C-4 16.3 -4 19.6 -4 23 C-4.66 23 -5.32 23 -6 23 C-6.28875 23.86625 -6.5775 24.7325 -6.875 25.625 C-7.24625 26.73875 -7.6175 27.8525 -8 29 C-8.33 30.03125 -8.66 31.0625 -9 32.125 C-9.84456199 34.55311573 -10.78395034 36.74162206 -12 39 C-14 36 -14 36 -14 33 C-13.34 32.67 -12.68 32.34 -12 32 C-11.25976679 30.02604477 -10.61238899 28.01728138 -10 26 C-9.1975956 23.71532145 -8.39478975 21.43084236 -7.5859375 19.1484375 C-6.8245884 16.72797497 -6.8245884 16.72797497 -7 13 Z " fill="#A0A19F" transform="translate(112,16)"/>
<path d="M0 0 C0.42227311 3.4464938 0.16463039 4.75903458 -1.828125 7.67578125 C-2.62734375 8.54589844 -3.4265625 9.41601562 -4.25 10.3125 C-5.03890625 11.19550781 -5.8278125 12.07851562 -6.640625 12.98828125 C-9 15 -9 15 -13 15 C-13.42227311 11.5535062 -13.16463039 10.24096542 -11.171875 7.32421875 C-10.37265625 6.45410156 -9.5734375 5.58398438 -8.75 4.6875 C-7.96109375 3.80449219 -7.1721875 2.92148438 -6.359375 2.01171875 C-4 0 -4 0 0 0 Z " fill="#1A1A1A" transform="translate(167,78)"/>
<path d="M0 0 C0.268125 0.639375 0.53625 1.27875 0.8125 1.9375 C1.88667752 4.33131686 1.88667752 4.33131686 5 5 C4.01 5.495 4.01 5.495 3 6 C2.73722045 7.97084661 2.48088412 9.94324415 2.28515625 11.921875 C1.9329944 14.48831477 1.09601698 16.66183045 0 19 C-0.33 19 -0.66 19 -1 19 C-1 17.35 -1 15.7 -1 14 C-2.98 14 -4.96 14 -7 14 C-7 13.01 -7 12.02 -7 11 C-6.01 10.34 -5.02 9.68 -4 9 C-3.65977214 7.00116131 -3.32670903 5.00109278 -3 3 C-1.4375 1.125 -1.4375 1.125 0 0 Z " fill="#252524" transform="translate(44,60)"/>
<path d="M0 0 C3 1 3 1 4 2 C4.33 2.99 4.66 3.98 5 5 C5.66 5.33 6.32 5.66 7 6 C5.71034824 7.37562854 4.37310707 8.70766393 3 10 C2.34 10 1.68 10 1 10 C0.67 10.66 0.34 11.32 0 12 C0.33 12.99 0.66 13.98 1 15 C1 16.32 1 17.64 1 19 C0.34 19 -0.32 19 -1 19 C-1.33 19.99 -1.66 20.98 -2 22 C-2.33 21.67 -2.66 21.34 -3 21 C-3.33 21.99 -3.66 22.98 -4 24 C-4.66 23.34 -5.32 22.68 -6 22 C-5.67 21.071875 -5.34 20.14375 -5 19.1875 C-3.85032996 16.07970709 -3.85032996 16.07970709 -4 13 C-4 12.01 -4 11.02 -4 10 C-3.01 9.1028125 -3.01 9.1028125 -2 8.1875 C0.32869198 6.0915944 0.32869198 6.0915944 0.25 2.75 C0.1675 1.8425 0.085 0.935 0 0 Z " fill="#3F403D" transform="translate(69,13)"/>
<path d="M0 0 C0.57234375 0.23976563 1.1446875 0.47953125 1.734375 0.7265625 C1.13103191 4.43159891 -0.49036737 6.58624398 -2.828125 9.4765625 C-3.78912109 10.67539063 -3.78912109 10.67539063 -4.76953125 11.8984375 C-5.51009766 12.80335937 -5.51009766 12.80335937 -6.265625 13.7265625 C-7.585625 13.3965625 -8.905625 13.0665625 -10.265625 12.7265625 C-10.60251486 9.52610884 -10.54644976 8.12326155 -8.65625 5.453125 C-7.59664062 4.41285156 -7.59664062 4.41285156 -6.515625 3.3515625 C-5.47148438 2.28808594 -5.47148438 2.28808594 -4.40625 1.203125 C-2.265625 -0.2734375 -2.265625 -0.2734375 0 0 Z " fill="#070707" transform="translate(54.265625,79.2734375)"/>
<path d="M0 0 C2 1.375 2 1.375 4 3 C4 3.66 4 4.32 4 5 C5.65 5 7.3 5 9 5 C7 8 7 8 4.875 8.6875 C4.25625 8.790625 3.6375 8.89375 3 9 C2.67 10.32 2.34 11.64 2 13 C1.34 13 0.68 13 0 13 C-0.33 13.66 -0.66 14.32 -1 15 C-1.33 15.66 -1.66 16.32 -2 17 C-2.99 16.67 -3.98 16.34 -5 16 C-4.67 15.38125 -4.34 14.7625 -4 14.125 C-2.85806765 12.08981656 -2.85806765 12.08981656 -3 10 C-2.34 9.34 -1.68 8.68 -1 8 C-1.66 6.02 -2.32 4.04 -3 2 C-2.01 1.34 -1.02 0.68 0 0 Z " fill="#C1C2C0" transform="translate(112,60)"/>
<path d="M0 0 C0.66 0.33 1.32 0.66 2 1 C2 2.98 2 4.96 2 7 C1.01 7.495 1.01 7.495 0 8 C-0.66 7.67 -1.32 7.34 -2 7 C-1.34 8.32 -0.68 9.64 0 11 C-0.66 11.66 -1.32 12.32 -2 13 C-2 13.66 -2 14.32 -2 15 C-2.99 15.495 -2.99 15.495 -4 16 C-4 16.99 -4 17.98 -4 19 C-5.32 18.34 -6.64 17.68 -8 17 C-8.25 14.1875 -8.25 14.1875 -8 11 C-6.0625 9.375 -6.0625 9.375 -4 8 C-3.3574765 5.93125966 -3.3574765 5.93125966 -3 4 C-2.34 3.67 -1.68 3.34 -1 3 C-0.67 2.01 -0.34 1.02 0 0 Z " fill="#5A5B5A" transform="translate(76,40)"/>
<path d="M0 0 C0.99 0.33 1.98 0.66 3 1 C2.34 1.66 1.68 2.32 1 3 C0.65657551 4.33076989 0.32380126 5.66431979 0 7 C-0.99 8.485 -0.99 8.485 -2 10 C-1.34 10.33 -0.68 10.66 0 11 C-0.66666667 12.33333333 -1.33333333 13.66666667 -2 15 C-2.66 15 -3.32 15 -4 15 C-4 16.98 -4 18.96 -4 21 C-4.99 20.67 -5.98 20.34 -7 20 C-7.125 16.625 -7.125 16.625 -7 13 C-6.34 12.34 -5.68 11.68 -5 11 C-4.7834375 9.8553125 -4.7834375 9.8553125 -4.5625 8.6875 C-3.85851214 5.32400246 -2.45636946 2.45636946 0 0 Z " fill="#9F9F9E" transform="translate(90,84)"/>
<path d="M0 0 C-0.33 1.65 -0.66 3.3 -1 5 C-1.66 5 -2.32 5 -3 5 C-3.061875 5.61875 -3.12375 6.2375 -3.1875 6.875 C-4 9 -4 9 -6.5625 10.25 C-7.366875 10.4975 -8.17125 10.745 -9 11 C-10.10844919 7.67465243 -9.84454356 5.37817425 -9 2 C-8.21625 1.855625 -7.4325 1.71125 -6.625 1.5625 C-4.19936192 1.04272041 -2.45184765 0 0 0 Z " fill="#414241" transform="translate(60,67)"/>
<path d="M0 0 C0.99 0 1.98 0 3 0 C3.33 0.99 3.66 1.98 4 3 C2.68 3.33 1.36 3.66 0 4 C0.165 4.5775 0.33 5.155 0.5 5.75 C1 8 1 8 1 12 C-1.60582371 12.93065133 -2.64198224 13.14917407 -5.25 12.0625 C-5.8275 11.711875 -6.405 11.36125 -7 11 C-6.01 10.67 -5.02 10.34 -4 10 C-3.01296048 7.93502613 -3.01296048 7.93502613 -2.375 5.5 C-1.07174888 1.07174888 -1.07174888 1.07174888 0 0 Z " fill="#4B4C4B" transform="translate(51,94)"/>
<path d="M0 0 C2.97 0.33 5.94 0.66 9 1 C8.67 1.99 8.34 2.98 8 4 C7.34 4 6.68 4 6 4 C6 4.66 6 5.32 6 6 C5.34 6 4.68 6 4 6 C4 6.66 4 7.32 4 8 C3.01 7.67 2.02 7.34 1 7 C0.09162237 4.52260646 0 2.66420516 0 0 Z " fill="#C4C5C4" transform="translate(102,85)"/>
<path d="M0 0 C1.62580966 0.11398665 3.25067157 0.24155659 4.875 0.375 C5.77992187 0.44460937 6.68484375 0.51421875 7.6171875 0.5859375 C10 1 10 1 12 3 C11.67 4.32 11.34 5.64 11 7 C8.03 6.67 5.06 6.34 2 6 C2.99 5.01 3.98 4.02 5 3 C2.525 2.01 2.525 2.01 0 1 C0 0.67 0 0.34 0 0 Z " fill="#1E1E1E" transform="translate(100,78)"/>
<path d="M0 0 C0.1875 2.375 0.1875 2.375 0 5 C-0.99 5.66 -1.98 6.32 -3 7 C-3.66 6.34 -4.32 5.68 -5 5 C-6.65 6.65 -8.3 8.3 -10 10 C-10.66 9.67 -11.32 9.34 -12 9 C-10.76421715 7.48826565 -9.51082994 5.9909084 -8.25 4.5 C-7.55390625 3.6646875 -6.8578125 2.829375 -6.140625 1.96875 C-4 0 -4 0 0 0 Z " fill="#1C1D1C" transform="translate(138,76)"/>
<path d="M0 0 C3.63 0.33 7.26 0.66 11 1 C7.39418101 3.70436424 5.19237367 4.75120784 1 6 C0.01 6.33 -0.98 6.66 -2 7 C-1.34 4.69 -0.68 2.38 0 0 Z " fill="#2E302F" transform="translate(47,66)"/>
<path d="M0 0 C0.66 0.99 1.32 1.98 2 3 C2.99 2.01 3.98 1.02 5 0 C5.8125 2.125 5.8125 2.125 6 5 C4.55576519 7.30107561 2.89127865 9.01646386 1 11 C0.814375 10.071875 0.814375 10.071875 0.625 9.125 C0.12802644 6.80879168 0.12802644 6.80879168 -2 5 C-1.34 3.35 -0.68 1.7 0 0 Z " fill="#C6C7C6" transform="translate(138,77)"/>
<path d="M0 0 C0.66 0.33 1.32 0.66 2 1 C1 4 1 4 -1 5 C-0.67 5.66 -0.34 6.32 0 7 C-2.31 7.33 -4.62 7.66 -7 8 C-6.67 7.34 -6.34 6.68 -6 6 C-5.34 6 -4.68 6 -4 6 C-3.67 4.35 -3.34 2.7 -3 1 C-2.01 0.67 -1.02 0.34 0 0 Z " fill="#4C4C4B" transform="translate(60,70)"/>
<path d="M0 0 C2 2 2 2 2.125 5.125 C2.08375 6.07375 2.0425 7.0225 2 8 C1.34 8 0.68 8 0 8 C-0.33 8.66 -0.66 9.32 -1 10 C-1.99 9.67 -2.98 9.34 -4 9 C-3.525625 8.071875 -3.05125 7.14375 -2.5625 6.1875 C-0.95511125 3.08803763 -0.95511125 3.08803763 0 0 Z " fill="#5D5F5D" transform="translate(60,89)"/>
<path d="M0 0 C3.72114571 2.31537955 6.61229661 4.28579473 9 8 C5.508067 7.35334574 2.84610101 6.13457576 0 4 C0 2.68 0 1.36 0 0 Z " fill="#090A13" transform="translate(170,115)"/>
<path d="M0 0 C0.66 0.33 1.32 0.66 2 1 C2 1.66 2 2.32 2 3 C1.34 3 0.68 3 0 3 C0.33 3.99 0.66 4.98 1 6 C-0.65 6 -2.3 6 -4 6 C-4.33 5.01 -4.66 4.02 -5 3 C-3 1 -3 1 0 0 Z " fill="#7B7B79" transform="translate(70,100)"/>
<path d="M0 0 C3.1875 -0.3125 3.1875 -0.3125 7 0 C9.9375 2.5 9.9375 2.5 12 5 C10.02 5 8.04 5 6 5 C6 3.68 6 2.36 6 1 C4.02 1 2.04 1 0 1 C0 0.67 0 0.34 0 0 Z " fill="#2A2B2C" transform="translate(122,45)"/>
<path d="M0 0 C0.33 0.66 0.66 1.32 1 2 C2.65 2 4.3 2 6 2 C5.01 3.32 4.02 4.64 3 6 C1.68 5.67 0.36 5.34 -1 5 C-0.67 3.35 -0.34 1.7 0 0 Z " fill="#232423" transform="translate(125,86)"/>
<path d="M0 0 C3.3 0 6.6 0 10 0 C10 0.33 10 0.66 10 1 C8.01432292 1.48828125 6.02864583 1.9765625 4.04296875 2.46484375 C2.34316798 2.91010705 0.66698046 3.44433985 -1 4 C-1.33 4.66 -1.66 5.32 -2 6 C-2.33 5.01 -2.66 4.02 -3 3 C-2.01 2.67 -1.02 2.34 0 2 C0 1.34 0 0.68 0 0 Z " fill="#AFB0AE" transform="translate(118,44)"/>
<path d="M0 0 C0.66 0 1.32 0 2 0 C1.47731534 2.76276177 0.89130413 5.3260876 0 8 C-0.99 7.67 -1.98 7.34 -3 7 C-2.25 2.25 -2.25 2.25 0 0 Z " fill="#C7C8C5" transform="translate(124,36)"/>
<path d="M0 0 C0.66 0.33 1.32 0.66 2 1 C2.94934202 3.92713788 3.23176473 5.42831368 2.0625 8.3125 C1.5365625 9.1478125 1.5365625 9.1478125 1 10 C0.34 9.67 -0.32 9.34 -1 9 C-1.09765625 2.84765625 -1.09765625 2.84765625 -1 1 C-0.67 0.67 -0.34 0.34 0 0 Z " fill="#5F605D" transform="translate(80,24)"/>
<path d="M0 0 C0.33 0.66 0.66 1.32 1 2 C-4.0940919 8.86214442 -4.0940919 8.86214442 -7.875 9.4375 C-8.57625 9.293125 -9.2775 9.14875 -10 9 C-9.40703125 8.74476562 -8.8140625 8.48953125 -8.203125 8.2265625 C-5.78775462 6.88183502 -4.48788294 5.50785633 -2.75 3.375 C-2.22921875 2.74335937 -1.7084375 2.11171875 -1.171875 1.4609375 C-0.78515625 0.97882813 -0.3984375 0.49671875 0 0 Z " fill="#ADAFAD" transform="translate(164,85)"/>
<path d="M0 0 C0.99 0.33 1.98 0.66 3 1 C2.34 1.66 1.68 2.32 1 3 C1.66 3.66 2.32 4.32 3 5 C1.35 5.33 -0.3 5.66 -2 6 C-1.125 1.125 -1.125 1.125 0 0 Z " fill="#5C5D5E" transform="translate(67,64)"/>
<path d="M0 0 C0.66 0.33 1.32 0.66 2 1 C2 1.66 2 2.32 2 3 C1.34 3 0.68 3 0 3 C-0.33 4.65 -0.66 6.3 -1 8 C-1.66 7.67 -2.32 7.34 -3 7 C-2.25 2.25 -2.25 2.25 0 0 Z " fill="#7F7F7D" transform="translate(94,28)"/>
<path d="M0 0 C0.66 0.33 1.32 0.66 2 1 C1.67 1.94875 1.34 2.8975 1 3.875 C-0.10159191 6.77062452 -0.10159191 6.77062452 0 9 C-0.99 8.67 -1.98 8.34 -3 8 C-3.36923077 3.44615385 -3.36923077 3.44615385 -1.5 1.1875 C-1.005 0.795625 -0.51 0.40375 0 0 Z " fill="#1E1E1E" transform="translate(30,96)"/>
<path d="M0 0 C0.99 0.33 1.98 0.66 3 1 C2.34 2.98 1.68 4.96 1 7 C0.01 6.67 -0.98 6.34 -2 6 C-1.34 4.02 -0.68 2.04 0 0 Z " fill="#DADCDA" transform="translate(136,83)"/>
<path d="M0 0 C2.97 0.33 5.94 0.66 9 1 C5.66203244 1.83449189 2.39305036 2.46019653 -1 3 C-0.67 2.01 -0.34 1.02 0 0 Z " fill="#BFBFBE" transform="translate(102,85)"/>
<path d="M0 0 C1.65 0 3.3 0 5 0 C4.01 1.485 4.01 1.485 3 3 C1.68 2.67 0.36 2.34 -1 2 C-0.67 1.34 -0.34 0.68 0 0 Z M-4 3 C-3.34 3.33 -2.68 3.66 -2 4 C-2 4.66 -2 5.32 -2 6 C-2.99 5.67 -3.98 5.34 -5 5 C-4.67 4.34 -4.34 3.68 -4 3 Z " fill="#C7C7C6" transform="translate(116,65)"/>
<path d="M0 0 C0.99 0.33 1.98 0.66 3 1 C3 2.32 3 3.64 3 5 C2.34 5 1.68 5 1 5 C0.67 5.66 0.34 6.32 0 7 C-0.66 6.34 -1.32 5.68 -2 5 C-1.34 3.35 -0.68 1.7 0 0 Z " fill="#7E7E7D" transform="translate(89,38)"/>
<path d="" fill="#BBBBBA" transform="translate(0,0)"/>
<path d="" fill="#E2E2E2" transform="translate(0,0)"/>
<path d="" fill="#BBBBBA" transform="translate(0,0)"/>
<path d="" fill="#D7DADA" transform="translate(0,0)"/>
<path d="" fill="#C5C5C4" transform="translate(0,0)"/>
<path d="" fill="#C8CAC9" transform="translate(0,0)"/>
<path d="" fill="#C8CAC9" transform="translate(0,0)"/>
</svg>
