<?xml version="1.0" encoding="UTF-8"?>
<svg version="1.1" xmlns="http://www.w3.org/2000/svg" width="188" height="128">
<path d="M0 0 C0.81533203 -0.00322266 1.63066406 -0.00644531 2.47070312 -0.00976562 C7.134378 0.03170602 10.9297102 0.5353106 15.3125 2.3125 C15.3125 2.9725 15.3125 3.6325 15.3125 4.3125 C16.3025 3.9825 17.2925 3.6525 18.3125 3.3125 C20.2578125 3.94140625 20.2578125 3.94140625 22.4375 4.875 C29.35558216 7.31141666 34.47862339 5.17176267 40.875 2.1875 C49.29573081 -1.32552363 60.84100928 -1.15777571 69.3046875 2.26953125 C73.20978415 4.29805422 76.76592079 6.71667924 80.3125 9.3125 C81.07433594 9.85777344 81.83617187 10.40304687 82.62109375 10.96484375 C88.15646914 15.00043829 88.15646914 15.00043829 89.3125 17.3125 C89.93125 17.621875 90.55 17.93125 91.1875 18.25 C95.46288038 20.38769019 96.63657469 22.9550942 98.3125 27.3125 C99.3025 28.3025 99.3025 28.3025 100.3125 29.3125 C100.3125 30.3025 100.3125 31.2925 100.3125 32.3125 C100.9725 32.6425 101.6325 32.9725 102.3125 33.3125 C104.89212462 37.1686399 107.08846442 41.24357836 109.3125 45.3125 C110.16521484 46.859375 110.16521484 46.859375 111.03515625 48.4375 C117.45559363 61.05752434 119.12329216 75.27003383 115.0625 88.9375 C113.26973039 93.86105751 111.01632168 99.8409285 106.23828125 102.44140625 C105.60277344 102.72886719 104.96726563 103.01632813 104.3125 103.3125 C103.85875 103.8075 103.405 104.3025 102.9375 104.8125 C100.6731234 106.90269379 98.23598316 107.4679382 95.3125 108.3125 C95.3125 109.3025 95.3125 110.2925 95.3125 111.3125 C96.3025 111.6425 97.2925 111.9725 98.3125 112.3125 C98.3125 112.9725 98.3125 113.6325 98.3125 114.3125 C98.89515625 114.580625 99.4778125 114.84875 100.078125 115.125 C102.34036601 116.32730991 104.11826318 117.65075913 106.0625 119.3125 C106.67609375 119.828125 107.2896875 120.34375 107.921875 120.875 C109.3125 122.3125 109.3125 122.3125 109.3125 124.3125 C109.951875 124.60125 110.59125 124.89 111.25 125.1875 C113.3125 126.3125 113.3125 126.3125 114.3125 128.3125 C54.2525 128.3125 -5.8075 128.3125 -67.6875 128.3125 C-61.6875 120.3125 -61.6875 120.3125 -58.6875 117.3125 C-58.0275 117.3125 -57.3675 117.3125 -56.6875 117.3125 C-56.6875 116.6525 -56.6875 115.9925 -56.6875 115.3125 C-55.39516393 113.93939293 -54.06312854 112.60215176 -52.6875 111.3125 C-54.51496573 109.26342379 -54.51496573 109.26342379 -56.62109375 108.38671875 C-62.3766705 105.39468925 -65.67709442 99.23790591 -67.6875 93.3125 C-68.375 90 -68.375 90 -68.6875 86.3125 C-68.75195312 85.59578125 -68.81640625 84.8790625 -68.8828125 84.140625 C-69.26168274 76.41167216 -67.03858434 69.60688988 -64.6875 62.3125 C-64.44902344 61.51972656 -64.21054688 60.72695313 -63.96484375 59.91015625 C-61.76315978 52.83048983 -58.65423649 46.09581937 -55.6875 39.3125 C-55.15707249 38.06270344 -54.62711856 36.81270577 -54.09765625 35.5625 C-50.74812932 27.84281466 -50.74812932 27.84281466 -47.6875 26.3125 C-47.419375 25.77625 -47.15125 25.24 -46.875 24.6875 C-43.65728313 18.25206627 -39.7947776 14.11514454 -33.6875 10.3125 C-33.0275 10.3125 -32.3675 10.3125 -31.6875 10.3125 C-31.3575 9.6525 -31.0275 8.9925 -30.6875 8.3125 C-29.02083333 7.97916667 -27.35416667 7.64583333 -25.6875 7.3125 C-25.3575 6.6525 -25.0275 5.9925 -24.6875 5.3125 C-22.71354477 4.57226679 -20.70478138 3.92488899 -18.6875 3.3125 C-18.03740967 3.06532227 -17.38731934 2.81814453 -16.7175293 2.56347656 C-11.0197957 0.44248403 -6.05051832 -0.12130149 0 0 Z " fill="#517920" transform="translate(69.6875,-0.3125)"/>
<path d="M0 0 C0.81533203 -0.00322266 1.63066406 -0.00644531 2.47070312 -0.00976562 C7.134378 0.03170602 10.9297102 0.5353106 15.3125 2.3125 C15.3125 2.9725 15.3125 3.6325 15.3125 4.3125 C16.3025 3.9825 17.2925 3.6525 18.3125 3.3125 C20.2578125 3.94140625 20.2578125 3.94140625 22.4375 4.875 C29.35558216 7.31141666 34.47862339 5.17176267 40.875 2.1875 C49.29573081 -1.32552363 60.84100928 -1.15777571 69.3046875 2.26953125 C73.20978415 4.29805422 76.76592079 6.71667924 80.3125 9.3125 C81.07433594 9.85777344 81.83617187 10.40304687 82.62109375 10.96484375 C88.15646914 15.00043829 88.15646914 15.00043829 89.3125 17.3125 C89.93125 17.621875 90.55 17.93125 91.1875 18.25 C95.46288038 20.38769019 96.63657469 22.9550942 98.3125 27.3125 C99.3025 28.3025 99.3025 28.3025 100.3125 29.3125 C100.3125 30.3025 100.3125 31.2925 100.3125 32.3125 C100.9725 32.6425 101.6325 32.9725 102.3125 33.3125 C104.89212462 37.1686399 107.08846442 41.24357836 109.3125 45.3125 C110.16521484 46.859375 110.16521484 46.859375 111.03515625 48.4375 C117.45559363 61.05752434 119.12329216 75.27003383 115.0625 88.9375 C113.26973039 93.86105751 111.01632168 99.8409285 106.23828125 102.44140625 C105.60277344 102.72886719 104.96726563 103.01632813 104.3125 103.3125 C103.85875 103.8075 103.405 104.3025 102.9375 104.8125 C100.6731234 106.90269379 98.23598316 107.4679382 95.3125 108.3125 C95.3125 109.3025 95.3125 110.2925 95.3125 111.3125 C96.3025 111.6425 97.2925 111.9725 98.3125 112.3125 C98.3125 112.9725 98.3125 113.6325 98.3125 114.3125 C98.89515625 114.580625 99.4778125 114.84875 100.078125 115.125 C102.34036601 116.32730991 104.11826318 117.65075913 106.0625 119.3125 C106.67609375 119.828125 107.2896875 120.34375 107.921875 120.875 C109.3125 122.3125 109.3125 122.3125 109.3125 124.3125 C109.951875 124.60125 110.59125 124.89 111.25 125.1875 C113.3125 126.3125 113.3125 126.3125 114.3125 128.3125 C54.2525 128.3125 -5.8075 128.3125 -67.6875 128.3125 C-61.6875 120.3125 -61.6875 120.3125 -58.6875 117.3125 C-58.0275 117.3125 -57.3675 117.3125 -56.6875 117.3125 C-56.6875 116.6525 -56.6875 115.9925 -56.6875 115.3125 C-55.39516393 113.93939293 -54.06312854 112.60215176 -52.6875 111.3125 C-54.51496573 109.26342379 -54.51496573 109.26342379 -56.62109375 108.38671875 C-62.3766705 105.39468925 -65.67709442 99.23790591 -67.6875 93.3125 C-68.375 90 -68.375 90 -68.6875 86.3125 C-68.75195312 85.59578125 -68.81640625 84.8790625 -68.8828125 84.140625 C-69.26168274 76.41167216 -67.03858434 69.60688988 -64.6875 62.3125 C-64.44902344 61.51972656 -64.21054688 60.72695313 -63.96484375 59.91015625 C-61.76315978 52.83048983 -58.65423649 46.09581937 -55.6875 39.3125 C-55.15707249 38.06270344 -54.62711856 36.81270577 -54.09765625 35.5625 C-50.74812932 27.84281466 -50.74812932 27.84281466 -47.6875 26.3125 C-47.419375 25.77625 -47.15125 25.24 -46.875 24.6875 C-43.65728313 18.25206627 -39.7947776 14.11514454 -33.6875 10.3125 C-33.0275 10.3125 -32.3675 10.3125 -31.6875 10.3125 C-31.3575 9.6525 -31.0275 8.9925 -30.6875 8.3125 C-29.02083333 7.97916667 -27.35416667 7.64583333 -25.6875 7.3125 C-25.3575 6.6525 -25.0275 5.9925 -24.6875 5.3125 C-22.71354477 4.57226679 -20.70478138 3.92488899 -18.6875 3.3125 C-18.03740967 3.06532227 -17.38731934 2.81814453 -16.7175293 2.56347656 C-11.0197957 0.44248403 -6.05051832 -0.12130149 0 0 Z M-31.6875 21.3125 C-32.65042969 22.04919922 -32.65042969 22.04919922 -33.6328125 22.80078125 C-35.03693881 23.90775525 -36.37234162 25.10116991 -37.6875 26.3125 C-37.6875 26.9725 -37.6875 27.6325 -37.6875 28.3125 C-38.3475 28.3125 -39.0075 28.3125 -39.6875 28.3125 C-45.3552727 35.43625501 -48.57088979 43.45708763 -51.4375 52 C-52.18201999 54.14983369 -52.92680571 56.29957537 -53.671875 58.44921875 C-54.01484619 59.46282471 -54.35781738 60.47643066 -54.71118164 61.52075195 C-55.54164484 63.89543231 -56.45563475 66.20069098 -57.41796875 68.5234375 C-59.99083602 76.20245675 -60.19357873 85.50194474 -57.76171875 93.26953125 C-54.0624556 99.67504001 -47.58942232 103.14840342 -40.6875 105.3125 C-31.72415317 106.63048987 -22.63815876 106.47752106 -13.6015625 106.44921875 C-12.83100147 106.44803228 -12.06044044 106.44684582 -11.26652908 106.4456234 C6.71793185 106.40975742 24.68641341 105.94113528 42.65869141 105.30541992 C47.12675548 105.14871493 51.59522179 105.02007981 56.06431007 104.89661121 C59.57379341 104.79450536 63.08234027 104.67175217 66.59095383 104.54343224 C68.24034234 104.48666959 69.8900144 104.43753486 71.53987503 104.39673805 C82.89115561 104.10713515 92.03085198 103.01961055 100.25 94.4375 C107.58097736 85.82765436 107.52997856 75.73289547 106.70898438 64.96582031 C105.76746107 58.66503506 102.70012842 53.40316767 99.38085938 48.06005859 C98.39025849 46.4396927 97.49508216 44.76203083 96.609375 43.08203125 C89.09625048 28.98580491 76.78255718 16.46918573 61.3125 11.3125 C53.51615385 10.55870963 46.89509339 11.12796061 39.625 13.875 C27.32491729 18.4407731 17.14071357 14.44401727 5.20703125 10.2109375 C-8.09780031 6.0812327 -21.46022748 13.12693573 -31.6875 21.3125 Z " fill="#070808" transform="translate(69.6875,-0.3125)"/>
<path d="M0 0 C0.80050781 0.52851563 1.60101563 1.05703125 2.42578125 1.6015625 C3.31910156 2.17132813 4.21242187 2.74109375 5.1328125 3.328125 C20.57510051 13.82456132 31.28692571 30.01983884 37.42578125 47.6015625 C38.64386237 56.89100827 39.18722286 68.53688493 34.04296875 76.66015625 C28.75187286 83.0120274 22.92289039 87.98768831 14.4765625 88.9309082 C10.77056436 89.12978612 7.07409241 89.22577911 3.36328125 89.2890625 C1.97589456 89.32213374 0.5885248 89.35592233 -0.79882812 89.39038086 C-18.05270336 89.78259746 -35.31734567 89.69344461 -52.57421875 89.6015625 C-52.57421875 88.2815625 -52.57421875 86.9615625 -52.57421875 85.6015625 C-51.91421875 85.6015625 -51.25421875 85.6015625 -50.57421875 85.6015625 C-50.57421875 84.2815625 -50.57421875 82.9615625 -50.57421875 81.6015625 C-49.25421875 81.6015625 -47.93421875 81.6015625 -46.57421875 81.6015625 C-46.57421875 80.2815625 -46.57421875 78.9615625 -46.57421875 77.6015625 C-43.43923583 75.74379485 -41.19950443 75.40015774 -37.57421875 75.6015625 C-37.57421875 76.2615625 -37.57421875 76.9215625 -37.57421875 77.6015625 C-37.03152344 77.3128125 -36.48882812 77.0240625 -35.9296875 76.7265625 C-35.21425781 76.3553125 -34.49882813 75.9840625 -33.76171875 75.6015625 C-33.05402344 75.2303125 -32.34632812 74.8590625 -31.6171875 74.4765625 C-29.57421875 73.6015625 -29.57421875 73.6015625 -26.57421875 73.6015625 C-26.57421875 72.9415625 -26.57421875 72.2815625 -26.57421875 71.6015625 C-29.04921875 72.0965625 -29.04921875 72.0965625 -31.57421875 72.6015625 C-31.57421875 71.9415625 -31.57421875 71.2815625 -31.57421875 70.6015625 C-30.58421875 70.6015625 -29.59421875 70.6015625 -28.57421875 70.6015625 C-28.07921875 69.1165625 -28.07921875 69.1165625 -27.57421875 67.6015625 C-26.91421875 67.6015625 -26.25421875 67.6015625 -25.57421875 67.6015625 C-25.20235853 61.52784554 -25.53070383 57.0588996 -28.57421875 51.6015625 C-30.99088646 48.85114584 -30.99088646 48.85114584 -33.57421875 46.6015625 C-34.57421875 45.6015625 -35.57421875 44.6015625 -36.57421875 43.6015625 C-38.05921875 44.0965625 -38.05921875 44.0965625 -39.57421875 44.6015625 C-40.06921875 43.1165625 -40.06921875 43.1165625 -40.57421875 41.6015625 C-39.25421875 41.6015625 -37.93421875 41.6015625 -36.57421875 41.6015625 C-36.57421875 40.9415625 -36.57421875 40.2815625 -36.57421875 39.6015625 C-37.23421875 39.6015625 -37.89421875 39.6015625 -38.57421875 39.6015625 C-38.24421875 38.2815625 -37.91421875 36.9615625 -37.57421875 35.6015625 C-36.91421875 35.6015625 -36.25421875 35.6015625 -35.57421875 35.6015625 C-35.57421875 34.9415625 -35.57421875 34.2815625 -35.57421875 33.6015625 C-36.56421875 33.6015625 -37.55421875 33.6015625 -38.57421875 33.6015625 C-38.57421875 32.2815625 -38.57421875 30.9615625 -38.57421875 29.6015625 C-36.59421875 30.2615625 -34.61421875 30.9215625 -32.57421875 31.6015625 C-32.57421875 30.9415625 -32.57421875 30.2815625 -32.57421875 29.6015625 C-31.91421875 29.6015625 -31.25421875 29.6015625 -30.57421875 29.6015625 C-30.57421875 28.9415625 -30.57421875 28.2815625 -30.57421875 27.6015625 C-31.52296875 27.6428125 -32.47171875 27.6840625 -33.44921875 27.7265625 C-36.57421875 27.6015625 -36.57421875 27.6015625 -38.57421875 25.6015625 C-34.61421875 25.1065625 -34.61421875 25.1065625 -30.57421875 24.6015625 C-30.75984375 23.9209375 -30.94546875 23.2403125 -31.13671875 22.5390625 C-31.66077423 19.0204043 -31.15678672 16.09697031 -30.57421875 12.6015625 C-30.57421875 11.6115625 -30.57421875 10.6215625 -30.57421875 9.6015625 C-27.10921875 9.1065625 -27.10921875 9.1065625 -23.57421875 8.6015625 C-23.57421875 6.6215625 -23.57421875 4.6415625 -23.57421875 2.6015625 C-27.26840076 1.3701685 -29.77984485 1.95723486 -33.57421875 2.6015625 C-24.38780649 -5.43654823 -10.34501222 -6.06139832 0 0 Z " fill="#5C8A26" transform="translate(138.57421875,14.3984375)"/>
<path d="M0 0 C0 0.66 0 1.32 0 2 C0.99 2.33 1.98 2.66 3 3 C3 3.66 3 4.32 3 5 C3.58265625 5.268125 4.1653125 5.53625 4.765625 5.8125 C7.02786601 7.01480991 8.80576318 8.33825913 10.75 10 C11.36359375 10.515625 11.9771875 11.03125 12.609375 11.5625 C14 13 14 13 14 15 C14.639375 15.28875 15.27875 15.5775 15.9375 15.875 C18 17 18 17 19 19 C-41.06 19 -101.12 19 -163 19 C-157 11 -157 11 -154 8 C-153.34 8 -152.68 8 -152 8 C-152 7.34 -152 6.68 -152 6 C-150.1875 3.875 -150.1875 3.875 -148 2 C-145.24420682 2 -143.19087063 2.36589915 -140.52880859 2.98339844 C-134.82986623 4.15144145 -129.34107927 4.28835015 -123.5390625 4.265625 C-122.45160233 4.26830887 -121.36414215 4.27099274 -120.24372864 4.27375793 C-116.70403185 4.277693 -113.16466371 4.2650325 -109.625 4.25 C-108.40869904 4.2478952 -107.19239807 4.24579041 -105.9392395 4.24362183 C-85.02616893 4.20133723 -64.19326559 3.50047969 -43.31402588 2.37120056 C-33.80626825 1.8650715 -24.2929006 1.58595803 -14.77514648 1.34204102 C-13.66341064 1.31037842 -12.5516748 1.27871582 -11.40625 1.24609375 C-10.45041016 1.22216553 -9.49457031 1.1982373 -8.50976562 1.17358398 C-5.59174102 0.97176341 -2.90551135 0 0 0 Z " fill="#0525BC" transform="translate(165,109)"/>
<path d="M0 0 C0.33 1.32 0.66 2.64 1 4 C1.66 4 2.32 4 3 4 C3 5.32 3 6.64 3 8 C3.66 8 4.32 8 5 8 C5 8.66 5 9.32 5 10 C5.680625 10.12375 6.36125 10.2475 7.0625 10.375 C10.4277412 11.09100877 13.70013425 12.02945125 17 13 C16.67 13.99 16.34 14.98 16 16 C18.35367713 16.6878236 18.35367713 16.6878236 21 17 C21.99 16.34 22.98 15.68 24 15 C26.64 16.98 29.28 18.96 32 21 C32 20.34 32 19.68 32 19 C33.98 19 35.96 19 38 19 C39.4783226 21.95664519 39.06032783 24.74229737 39 28 C41.92438754 27.35980881 41.92438754 27.35980881 45 26 C45.474375 25.13375 45.94875 24.2675 46.4375 23.375 C46.953125 22.59125 47.46875 21.8075 48 21 C51.625 20.625 51.625 20.625 55 21 C56 22 56 22 56.0625 25.0625 C56.041875 26.031875 56.02125 27.00125 56 28 C54.515 28.495 54.515 28.495 53 29 C51.81480735 31.43276386 51 33.28017286 51 36 C52.65 36 54.3 36 56 36 C56 35.01 56 34.02 56 33 C57.32 32.67 58.64 32.34 60 32 C58.65553875 37.54590266 54.51310938 40.85201296 50 44 C43.31540132 47.8571941 36.51223966 47.55832198 28.9375 47.6875 C27.55011331 47.72057124 26.16274355 47.75435983 24.77539062 47.78881836 C7.52151539 48.18103496 -9.74312692 48.09188211 -27 48 C-27 46.68 -27 45.36 -27 44 C-26.34 44 -25.68 44 -25 44 C-25 42.68 -25 41.36 -25 40 C-23.68 40 -22.36 40 -21 40 C-21 38.68 -21 37.36 -21 36 C-17.86501708 34.14223235 -15.62528568 33.79859524 -12 34 C-12 34.66 -12 35.32 -12 36 C-11.45730469 35.71125 -10.91460937 35.4225 -10.35546875 35.125 C-9.64003906 34.75375 -8.92460938 34.3825 -8.1875 34 C-7.47980469 33.62875 -6.77210937 33.2575 -6.04296875 32.875 C-4 32 -4 32 -1 32 C-1 31.34 -1 30.68 -1 30 C-2.65 30.33 -4.3 30.66 -6 31 C-6 30.34 -6 29.68 -6 29 C-5.01 29 -4.02 29 -3 29 C-2.67 28.01 -2.34 27.02 -2 26 C-1.34 26 -0.68 26 0 26 C0.37186022 19.92628304 0.04351492 15.4573371 -3 10 C-3.886875 9.113125 -4.77375 8.22625 -5.6875 7.3125 C-6.450625 6.549375 -7.21375 5.78625 -8 5 C-8 3.68 -8 2.36 -8 1 C-7.01 1.33 -6.02 1.66 -5 2 C-5 2.66 -5 3.32 -5 4 C-3.35 4 -1.7 4 0 4 C0 2.68 0 1.36 0 0 Z " fill="#5E8927" transform="translate(113,56)"/>
<path d="M0 0 C0.96280884 0.31940552 0.96280884 0.31940552 1.94506836 0.64526367 C13.95896578 4.03827474 26.18563151 3.41021821 38.5625 3.3125 C41.02229757 3.30314241 43.48209576 3.2939485 45.94189453 3.28491211 C65.48850959 3.17490308 84.9732788 2.41915135 104.48899841 1.37571716 C113.40525363 0.9076815 122.32534307 0.62550414 131.25 0.375 C132.32444366 0.34444016 132.32444366 0.34444016 133.42059326 0.31326294 C137.28027436 0.20402881 141.14005485 0.09944978 145 0 C144.67 0.66 144.34 1.32 144 2 C139.39153349 3.41663682 134.50856518 3.188559 129.73046875 3.24609375 C127.86295023 3.27775347 125.99543737 3.30974855 124.12792969 3.34204102 C122.67018127 3.3651384 122.67018127 3.3651384 121.1829834 3.38870239 C104.3795063 3.66243767 87.71911875 4.18347128 71 6 C71 6.99 71 7.98 71 9 C70.071875 9.2475 69.14375 9.495 68.1875 9.75 C64.76256165 11.09311308 63.85910933 11.93246961 62 15 C61.34 15.99 60.68 16.98 60 18 C57.54534151 18.28679046 55.3435516 18.37873005 52.88818359 18.34057617 C52.15637375 18.34101425 51.4245639 18.34145233 50.670578 18.34190369 C48.24626185 18.33980989 45.82263316 18.3164519 43.3984375 18.29296875 C41.71978127 18.28737488 40.04112015 18.28310379 38.36245728 18.28010559 C33.94000778 18.26864033 29.51785294 18.23915891 25.09552002 18.20599365 C20.5845539 18.17532884 16.07354026 18.16160795 11.5625 18.14648438 C2.70820373 18.11429065 -6.14587365 18.06307417 -15 18 C-14.06558465 16.72689688 -13.12732889 15.456612 -12.1875 14.1875 C-11.66542969 13.47980469 -11.14335937 12.77210937 -10.60546875 12.04296875 C-9.15747502 10.20038793 -7.76898495 8.53635131 -6 7 C-5.34 7 -4.68 7 -4 7 C-4 6.34 -4 5.68 -4 5 C-2.68733482 3.64631404 -1.35432675 2.31200404 0 1 C0 0.67 0 0.34 0 0 Z " fill="#0420A5" transform="translate(17,110)"/>
<path d="M0 0 C0.66 0.99 1.32 1.98 2 3 C2.680625 3.33 3.36125 3.66 4.0625 4 C6 5 6 5 7 8 C6.34 8 5.68 8 5 8 C4.67 8.99 4.34 9.98 4 11 C3.649375 11.680625 3.29875 12.36125 2.9375 13.0625 C1.85481302 14.94132026 1.85481302 14.94132026 2 17 C2.45375 16.505 2.9075 16.01 3.375 15.5 C5 14 5 14 7 14 C7 13.34 7 12.68 7 12 C7.99 11.67 8.98 11.34 10 11 C13.1875 12.6875 13.1875 12.6875 16 15 C16 16.32 16 17.64 16 19 C15.34 19 14.68 19 14 19 C14.33 19.99 14.66 20.98 15 22 C15.66 22.33 16.32 22.66 17 23 C17 22.34 17 21.68 17 21 C20.96 20.505 20.96 20.505 25 20 C25.75 21.625 25.75 21.625 26 24 C24.7260411 26.03833424 23.38938077 28.03852126 22 30 C21.23060319 32.22602615 21.23060319 32.22602615 21 34 C20.34 34 19.68 34 19 34 C18.67 35.32 18.34 36.64 18 38 C11.25 37.125 11.25 37.125 9 36 C8.505 34.515 8.505 34.515 8 33 C7.401875 33.639375 6.80375 34.27875 6.1875 34.9375 C4 37 4 37 1 38 C1.66 40.31 2.32 42.62 3 45 C-0.90005 43.26664444 -2.8663485 41.52230305 -5.00390625 37.83984375 C-9.49733137 25.02917683 -5.04934191 11.87196461 0 0 Z " fill="#4B6B1F" transform="translate(17,55)"/>
<path d="M0 0 C1.98 0 3.96 0 6 0 C7.4783226 2.95664519 7.06032783 5.74229737 7 9 C9.92438754 8.35980881 9.92438754 8.35980881 13 7 C13.474375 6.13375 13.94875 5.2675 14.4375 4.375 C14.953125 3.59125 15.46875 2.8075 16 2 C19.625 1.625 19.625 1.625 23 2 C24 3 24 3 24.0625 6.0625 C24.041875 7.031875 24.02125 8.00125 24 9 C23.01 9.33 22.02 9.66 21 10 C20.67 10.99 20.34 11.98 20 13 C17.91703929 15.35172983 15.66289172 17.32938582 13 19 C10.0625 18.875 10.0625 18.875 8 18 C7.67 15.69 7.34 13.38 7 11 C3.18447383 12.49895671 1.46254954 14.7986856 -1 18 C-3.70879335 19.35439668 -6.00933268 19.06501451 -9 19 C-9.33 16.69 -9.66 14.38 -10 12 C-10.99 12.33 -11.98 12.66 -13 13 C-13 13.66 -13 14.32 -13 15 C-13.66 15 -14.32 15 -15 15 C-15 15.66 -15 16.32 -15 17 C-16.98 17 -18.96 17 -21 17 C-20.21133107 10.29631412 -16.08937951 5.22046106 -11 1 C-8.1875 0.6875 -8.1875 0.6875 -6 1 C-5.92572162 4.34252724 -5.93453047 6.8035914 -7 10 C-6.34 10 -5.68 10 -5 10 C-4.67 8.02 -4.34 6.04 -4 4 C-3.01 4 -2.02 4 -1 4 C-0.67 2.68 -0.34 1.36 0 0 Z " fill="#8E6B36" transform="translate(145,75)"/>
<path d="M0 0 C3.8032491 2.94945848 3.8032491 2.94945848 5 6 C5.38711927 9.70819516 5.29722916 13.28793801 5 17 C3.35 17.66 1.7 18.32 0 19 C0 19.66 0 20.32 0 21 C-4.31153536 23.42889662 -8.13409452 23.85027068 -13 23 C-16.07061968 21.28631391 -18.40450726 19.19098548 -20 16 C-19.9129796 14.28766312 -19.75902838 12.57824594 -19.5625 10.875 C-19.46066406 9.96492188 -19.35882813 9.05484375 -19.25390625 8.1171875 C-19.17011719 7.41851562 -19.08632813 6.71984375 -19 6 C-18.34 6 -17.68 6 -17 6 C-16.79375 5.21625 -16.5875 4.4325 -16.375 3.625 C-15 1 -15 1 -12.4375 -0.375 C-8.03395656 -1.17564426 -4.31005434 -1.31520041 0 0 Z " fill="#040701" transform="translate(64,44)"/>
<path d="M0 0 C2.58615246 1.93961435 3.54372153 3.26505966 4.75 6.3125 C5.12157656 10.57511417 5.08673272 14.57898494 2.39453125 18.0703125 C-0.71542459 20.56112382 -3.45660827 21.60835778 -7.4375 21.75 C-12.74846469 21.14054504 -12.74846469 21.14054504 -15.25 19.3125 C-17.94542917 15.26935624 -17.91452365 12.06141289 -17.25 7.3125 C-15.62854397 4.12749709 -14.27671736 2.09138904 -11.4375 -0.0625 C-7.55296684 -1.17236662 -3.86539426 -1.18109269 0 0 Z " fill="#050902" transform="translate(135.25,45.6875)"/>
<path d="M0 0 C1.06287231 0.31287964 1.06287231 0.31287964 2.1472168 0.63208008 C12.37607557 3.34144073 22.28863175 3.5499525 32.8125 3.6875 C34.58400832 3.72075329 36.35549375 3.75525001 38.12695312 3.79101562 C42.41784017 3.87498787 46.70868362 3.94222062 51 4 C51 4.33 51 4.66 51 5 C34.665 5.99 34.665 5.99 18 7 C18.66 8.32 19.32 9.64 20 11 C19.236875 10.95875 18.47375 10.9175 17.6875 10.875 C14.77281584 10.77919176 14.77281584 10.77919176 12 13 C11.34 11.68 10.68 10.36 10 9 C9.01 9.99 8.02 10.98 7 12 C6.34 11.67 5.68 11.34 5 11 C4.67 13.31 4.34 15.62 4 18 C-2.27 18 -8.54 18 -15 18 C-8.46375 9.13975 -8.46375 9.13975 -6 7 C-5.34 7 -4.68 7 -4 7 C-4 6.34 -4 5.68 -4 5 C-2.68733482 3.64631404 -1.35432675 2.31200404 0 1 C0 0.67 0 0.34 0 0 Z " fill="#041C95" transform="translate(17,110)"/>
<path d="M0 0 C0.33 1.65 0.66 3.3 1 5 C0.34 5 -0.32 5 -1 5 C-0.67 5.99 -0.34 6.98 0 8 C0.66 8.33 1.32 8.66 2 9 C2 8.34 2 7.68 2 7 C4.64 6.67 7.28 6.34 10 6 C10.75 7.625 10.75 7.625 11 10 C9.7260411 12.03833424 8.38938077 14.03852126 7 16 C6.23060319 18.22602615 6.23060319 18.22602615 6 20 C5.34 20 4.68 20 4 20 C3.67 21.32 3.34 22.64 3 24 C0.69 23.67 -1.62 23.34 -4 23 C-4.1953125 16.9453125 -4.1953125 16.9453125 -4 15 C-3.34 14.34 -2.68 13.68 -2 13 C-1.3574765 10.93125966 -1.3574765 10.93125966 -1 9 C-1.99 9 -2.98 9 -4 9 C-4.226875 9.53625 -4.45375 10.0725 -4.6875 10.625 C-6.48477111 13.87720486 -8.4219781 16.29921515 -11 19 C-12.32 19 -13.64 19 -15 19 C-16.125 13.375 -16.125 13.375 -15 10 C-14.34 10 -13.68 10 -13 10 C-12.938125 9.278125 -12.87625 8.55625 -12.8125 7.8125 C-10.83257475 0.95891259 -6.72514057 -0.65932751 0 0 Z " fill="#8F413C" transform="translate(32,69)"/>
<path d="M0 0 C1.32 0 2.64 0 4 0 C4 1.32 4 2.64 4 4 C3.34 4 2.68 4 2 4 C1.95875 5.27875 1.9175 6.5575 1.875 7.875 C1.84019531 8.95394531 1.84019531 8.95394531 1.8046875 10.0546875 C1.81668311 12.23863645 1.81668311 12.23863645 4 14 C6.45769153 14.41679297 6.45769153 14.41679297 9 14 C9.7115625 13.2265625 9.7115625 13.2265625 10.4375 12.4375 C10.953125 11.963125 11.46875 11.48875 12 11 C16.23924822 11.28261655 19.99982872 12.63630524 24 14 C24.66 14 25.32 14 26 14 C26.77916092 8.97874074 27.13016601 5.02296004 26 0 C28.31 0.33 30.62 0.66 33 1 C33.93742541 3.81227622 34.13470844 5.58746844 34.125 8.5 C34.12886719 9.66015625 34.12886719 9.66015625 34.1328125 10.84375 C34 13 34 13 33 16 C25.66459549 19.47466529 19.94974347 19.63671189 12 18 C11.34 18.33 10.68 18.66 10 19 C5.30346636 19.64588871 1.99280953 19.59568572 -2.125 17.125 C-4.81463773 12.64227044 -4.1105766 8.97996651 -3 4 C-2.67 3.34 -2.34 2.68 -2 2 C-1.34 2 -0.68 2 0 2 C0 1.34 0 0.68 0 0 Z " fill="#0B1502" transform="translate(77,68)"/>
<path d="M0 0 C0.99 0.66 1.98 1.32 3 2 C2.21625 2.4125 1.4325 2.825 0.625 3.25 C-2.18535075 5.12356717 -2.80735995 5.93870733 -4 9 C-4.27664195 11.25919792 -4.27664195 11.25919792 -4.1875 13.5625 C-4.18105469 14.32691406 -4.17460938 15.09132813 -4.16796875 15.87890625 C-4.07053505 18.18897716 -4.07053505 18.18897716 -3 21 C-2.34 21.33 -1.68 21.66 -1 22 C-2.32 22 -3.64 22 -5 22 C-5 21.34 -5 20.68 -5 20 C-5.66 20 -6.32 20 -7 20 C-7 18.68 -7 17.36 -7 16 C-9.64 16 -12.28 16 -15 16 C-15 15.34 -15 14.68 -15 14 C-16.32 14 -17.64 14 -19 14 C-20.125 6.25 -20.125 6.25 -19 4 C-17.66666667 3.66666667 -16.33333333 3.33333333 -15 3 C-14.29875 2.484375 -13.5975 1.96875 -12.875 1.4375 C-8.71015037 -0.64492481 -4.58475538 -0.59834943 0 0 Z " fill="#598825" transform="translate(123,44)"/>
<path d="M0 0 C2.97 0 5.94 0 9 0 C9 0.66 9 1.32 9 2 C10.32 1.34 11.64 0.68 13 0 C13 0.99 13 1.98 13 3 C12.67 3.33 12.34 3.66 12 4 C12.99 4.33 13.98 4.66 15 5 C15 5.99 15 6.98 15 8 C15.66 8 16.32 8 17 8 C17 8.99 17 9.98 17 11 C16.34 11 15.68 11 15 11 C15 12.65 15 14.3 15 16 C14.44570313 15.6390625 13.89140625 15.278125 13.3203125 14.90625 C12.59585937 14.4421875 11.87140625 13.978125 11.125 13.5 C10.40570313 13.0359375 9.68640625 12.571875 8.9453125 12.09375 C7.08139534 10.83663499 7.08139534 10.83663499 5 11 C5 11.66 5 12.32 5 13 C4.34 13 3.68 13 3 13 C2.67 13.99 2.34 14.98 2 16 C1.01 16.33 0.02 16.66 -1 17 C-0.38909774 10.52443609 -0.38909774 10.52443609 1.4375 8.0625 C3 7 3 7 5 7 C3.35 4.69 1.7 2.38 0 0 Z " fill="#48711B" transform="translate(19,56)"/>
<path d="M0 0 C2.31 0.33 4.62 0.66 7 1 C7.93742541 3.81227622 8.13470844 5.58746844 8.125 8.5 C8.12886719 9.66015625 8.12886719 9.66015625 8.1328125 10.84375 C8 13 8 13 7 16 C1.38102832 18.66161816 -2.82711812 19.3306901 -9 19 C-9.33 18.34 -9.66 17.68 -10 17 C-8.865625 16.87625 -7.73125 16.7525 -6.5625 16.625 C-5.386875 16.41875 -4.21125 16.2125 -3 16 C-2.67 15.34 -2.34 14.68 -2 14 C-1.34 14 -0.68 14 0 14 C0.77916092 8.97874074 1.13016601 5.02296004 0 0 Z " fill="#1A2A08" transform="translate(103,68)"/>
<path d="M0 0 C2.31 0.66 4.62 1.32 7 2 C3.25 5 3.25 5 1 5 C1 5.66 1 6.32 1 7 C0.01 7.495 0.01 7.495 -1 8 C-0.67 8.66 -0.34 9.32 0 10 C-0.9375 12.125 -0.9375 12.125 -2 14 C-1.01 15.32 -0.02 16.64 1 18 C-4.28 18 -9.56 18 -15 18 C-8.46375 9.13975 -8.46375 9.13975 -6 7 C-5.34 7 -4.68 7 -4 7 C-4 6.34 -4 5.68 -4 5 C-2.68733482 3.64631404 -1.35432675 2.31200404 0 1 C0 0.67 0 0.34 0 0 Z " fill="#0B229C" transform="translate(17,110)"/>
<path d="M0 0 C0.721875 0.103125 1.44375 0.20625 2.1875 0.3125 C1.8125 2.75 1.8125 2.75 1.1875 5.3125 C0.1975 5.8075 0.1975 5.8075 -0.8125 6.3125 C-1.53943904 8.29138961 -2.21066251 10.29204558 -2.8125 12.3125 C-3.4725 12.3125 -4.1325 12.3125 -4.8125 12.3125 C-4.8125 12.9725 -4.8125 13.6325 -4.8125 14.3125 C-5.4725 14.3125 -6.1325 14.3125 -6.8125 14.3125 C-6.8125 14.9725 -6.8125 15.6325 -6.8125 16.3125 C-8.7925 16.3125 -10.7725 16.3125 -12.8125 16.3125 C-12.04081514 9.75317866 -7.06156916 0.7846188 0 0 Z " fill="#C83D5A" transform="translate(136.8125,75.6875)"/>
<path d="M0 0 C0.6875 1.6875 0.6875 1.6875 1 4 C-0.25 6.75 -0.25 6.75 -2 9 C-2.99 9 -3.98 9 -5 9 C-5.226875 9.804375 -5.45375 10.60875 -5.6875 11.4375 C-6.3371875 12.7059375 -6.3371875 12.7059375 -7 14 C-9.625 14.8125 -9.625 14.8125 -12 15 C-11.46179265 9.725568 -10.42664915 5.66663298 -8 1 C-5.07175348 0.02391783 -3.04386724 -0.08226668 0 0 Z " fill="#C01D5F" transform="translate(42,75)"/>
<path d="M0 0 C0.33 1.32 0.66 2.64 1 4 C0.50628906 4.40992187 0.01257812 4.81984375 -0.49609375 5.2421875 C-1.13675781 5.78101562 -1.77742188 6.31984375 -2.4375 6.875 C-3.07558594 7.40867187 -3.71367188 7.94234375 -4.37109375 8.4921875 C-6.10805004 9.9222757 -6.10805004 9.9222757 -7 12 C-7.66 12 -8.32 12 -9 12 C-9 12.66 -9 13.32 -9 14 C-10.32 13.67 -11.64 13.34 -13 13 C-12.53802187 8.84219686 -12.14081415 6.76391645 -9 4 C-8.67 3.29875 -8.34 2.5975 -8 1.875 C-6.08433109 -1.71687922 -3.37138337 -1.04629139 0 0 Z " fill="#BD285A" transform="translate(57,80)"/>
<path d="M0 0 C1.32 0.33 2.64 0.66 4 1 C4.5699776 5.8448096 2.96022426 8.23971513 0 12 C-2.5 14.4375 -2.5 14.4375 -5 16 C-7.3125 15.75 -7.3125 15.75 -9 15 C-7.00032606 9.33425718 -3.63809789 4.72952725 0 0 Z " fill="#B72256" transform="translate(26,70)"/>
<path d="M0 0 C-1.23627377 6.59346009 -4.38064299 10.24477955 -9 15 C-10.32 14.67 -11.64 14.34 -13 14 C-12.67 12.02 -12.34 10.04 -12 8 C-11.01 7.67 -10.02 7.34 -9 7 C-8.505 5.845 -8.01 4.69 -7.5 3.5 C-7.005 2.345 -6.51 1.19 -6 0 C-3 -1 -3 -1 0 0 Z " fill="#ED2574" transform="translate(151,78)"/>
<path d="M0 0 C0.66 0.33 1.32 0.66 2 1 C1.505 1.70125 1.01 2.4025 0.5 3.125 C-1.1936681 6.37119719 -1.25162315 8.39340156 -1 12 C4.05754822 10.80998865 5.85888103 7.79813206 8.5703125 3.6796875 C9.04210938 3.12539062 9.51390625 2.57109375 10 2 C10.99 2 11.98 2 13 2 C12.125 6.875 12.125 6.875 11 8 C10.63239269 10.32817964 10.29758419 12.6618385 10 15 C9.34 15 8.68 15 8 15 C7.67 14.01 7.34 13.02 7 12 C6.01 12.99 5.02 13.98 4 15 C1.97954558 14.39816251 -0.02111039 13.72693904 -2 13 C-3.49297212 10.01405576 -3.11755228 7.29146376 -3 4 C-2.67 3.34 -2.34 2.68 -2 2 C-1.34 2 -0.68 2 0 2 C0 1.34 0 0.68 0 0 Z " fill="#596A1F" transform="translate(18,76)"/>
<path d="M0 0 C0 0.99 0 1.98 0 3 C-0.598125 2.814375 -1.19625 2.62875 -1.8125 2.4375 C-4.16408762 1.77906313 -4.16408762 1.77906313 -7 3 C-8.62750037 5.32323453 -8.62750037 5.32323453 -10 8 C-10.391875 8.70125 -10.78375 9.4025 -11.1875 10.125 C-12.19880372 12.11819901 -12.19880372 12.11819901 -12 15 C-11.01 15.33 -10.02 15.66 -9 16 C-9 15.34 -9 14.68 -9 14 C-8.34 14 -7.68 14 -7 14 C-6.34 12.68 -5.68 11.36 -5 10 C-4.67 10.66 -4.34 11.32 -4 12 C-4.99 13.485 -4.99 13.485 -6 15 C-6.66 15 -7.32 15 -8 15 C-8.33 15.99 -8.66 16.98 -9 18 C-10.65 17.67 -12.3 17.34 -14 17 C-15.46594005 9.91462307 -15.46594005 9.91462307 -13.3125 5.6875 C-8.93331559 0.59817758 -6.86378176 -0.39598741 0 0 Z " fill="#93463B" transform="translate(57,78)"/>
<path d="M0 0 C0.721875 0.12375 1.44375 0.2475 2.1875 0.375 C2.1875 4.375 2.1875 4.375 0.375 6.375 C-0.346875 7.035 -1.06875 7.695 -1.8125 8.375 C-2.555 9.48875 -2.555 9.48875 -3.3125 10.625 C-3.8075 11.2025 -4.3025 11.78 -4.8125 12.375 C-6.1325 12.375 -7.4525 12.375 -8.8125 12.375 C-8.40605252 6.68473534 -6.32696326 0.8435951 0 0 Z " fill="#E6296E" transform="translate(163.8125,79.625)"/>
<path d="M0 0 C2.57844819 0.92559679 3.78999785 1.70723401 5.4375 3.875 C5.4375 4.535 5.4375 5.195 5.4375 5.875 C4.7775 6.535 4.1175 7.195 3.4375 7.875 C2.74001417 9.19247324 2.06790043 10.52414193 1.4375 11.875 C0.7775 11.875 0.1175 11.875 -0.5625 11.875 C-0.8925 12.535 -1.2225 13.195 -1.5625 13.875 C-0.9025 10.245 -0.2425 6.615 0.4375 2.875 C-4.76072672 4.23644033 -7.65793873 6.34230171 -11.5625 9.875 C-11.5625 8.555 -11.5625 7.235 -11.5625 5.875 C-9.3125 4.3125 -9.3125 4.3125 -6.5625 2.875 C-5.5725 2.00875 -5.5725 2.00875 -4.5625 1.125 C-2.5625 -0.125 -2.5625 -0.125 0 0 Z " fill="#747E2A" transform="translate(138.5625,73.125)"/>
<path d="M0 0 C1.98 0 3.96 0 6 0 C5.01 0.495 5.01 0.495 4 1 C3.67 1.99 3.34 2.98 3 4 C2.34 4 1.68 4 1 4 C1.37904208 7.29075996 1.37904208 7.29075996 3 10 C3.04063832 11.66617115 3.042721 13.33388095 3 15 C2.38125 14.649375 1.7625 14.29875 1.125 13.9375 C0.42375 13.628125 -0.2775 13.31875 -1 13 C-1.99 13.495 -1.99 13.495 -3 14 C-3 13.01 -3 12.02 -3 11 C-3.66 10.67 -4.32 10.34 -5 10 C-4.34 10 -3.68 10 -3 10 C-3.33 8.02 -3.66 6.04 -4 4 C-2.02 4.495 -2.02 4.495 0 5 C0 3.35 0 1.7 0 0 Z " fill="#598526" transform="translate(100,64)"/>
<path d="M0 0 C0.33 2.64 0.66 5.28 1 8 C5.7517398 7.56802365 7.92000054 6.67230705 11 3 C9.74425659 6.87187551 8.65992073 9.06837517 5 11 C1.75 11.1875 1.75 11.1875 -1 11 C-1.66 9.35 -2.32 7.7 -3 6 C-4.98 6.66 -6.96 7.32 -9 8 C-4.13043478 0 -4.13043478 0 0 0 Z " fill="#787B2B" transform="translate(153,85)"/>
<path d="M0 0 C1.2065625 0.0309375 1.2065625 0.0309375 2.4375 0.0625 C2.13850785 3.65040575 1.66763399 4.84416776 -1 7.375 C-3.5625 9.0625 -3.5625 9.0625 -5.5625 9.0625 C-5.5625 10.0525 -5.5625 11.0425 -5.5625 12.0625 C-6.2225 12.0625 -6.8825 12.0625 -7.5625 12.0625 C-8.12955966 7.24249289 -6.40732 4.85559334 -3.5625 1.0625 C-2.5625 0.0625 -2.5625 0.0625 0 0 Z " fill="#EE2478" transform="translate(136.5625,75.9375)"/>
<path d="M0 0 C1.65 0 3.3 0 5 0 C5.93671589 2.98045964 6.2018994 4.50787022 5 7.4375 C2.38085877 10.7932747 -0.34696596 13.76181722 -4 16 C-6.9375 15.875 -6.9375 15.875 -9 15 C-8.625 12.0625 -8.625 12.0625 -8 9 C-7.34 8.67 -6.68 8.34 -6 8 C-6.33 9.98 -6.66 11.96 -7 14 C-2.07971199 12.63325333 -0.65512553 10.21157843 2 6 C2.66 6 3.32 6 4 6 C4 4.68 4 3.36 4 2 C2.68 2 1.36 2 0 2 C0 1.34 0 0.68 0 0 Z " fill="#BA484E" transform="translate(162,78)"/>
<path d="M0 0 C0.66 0 1.32 0 2 0 C3.79317423 4.43019517 4.33862005 7.3663152 3 12 C1.4375 13.875 1.4375 13.875 0 15 C-4 13.66666667 -8 12.33333333 -12 11 C-11.67 10.01 -11.34 9.02 -11 8 C-9.02 8.66 -7.04 9.32 -5 10 C-5 10.66 -5 11.32 -5 12 C-1.535 11.505 -1.535 11.505 2 11 C1.42547254 7.06924356 1.42547254 7.06924356 -1 4 C-0.625 1.875 -0.625 1.875 0 0 Z " fill="#324D13" transform="translate(101,68)"/>
<path d="M0 0 C4.56454251 0.54339792 7.9728176 1.79463821 12 4 C11.67 4.66 11.34 5.32 11 6 C6.38 6 1.76 6 -3 6 C-2.01 4.02 -1.02 2.04 0 0 Z " fill="#040901" transform="translate(89,79)"/>
<path d="M0 0 C0 0.66 0 1.32 0 2 C-0.66 2 -1.32 2 -2 2 C-2.433125 3.175625 -2.433125 3.175625 -2.875 4.375 C-4 7 -4 7 -6 9 C-8.625 9.125 -8.625 9.125 -11 9 C-11.33 8.34 -11.66 7.68 -12 7 C-10.02 6.67 -8.04 6.34 -6 6 C-6 5.01 -6 4.02 -6 3 C-6.66 3 -7.32 3 -8 3 C-7.67 2.01 -7.34 1.02 -7 0 C-4.3333581 -1.33332095 -2.83319697 -0.67102033 0 0 Z " fill="#517920" transform="translate(92,74)"/>
<path d="M0 0 C0.33 0.66 0.66 1.32 1 2 C0.67 2.99 0.34 3.98 0 5 C0.66 5 1.32 5 2 5 C2 4.34 2 3.68 2 3 C3.32 2.34 4.64 1.68 6 1 C5.34 2.65 4.68 4.3 4 6 C3.01 6 2.02 6 1 6 C0.7497843 8.91634129 0.7497843 8.91634129 1 12 C1.99 12.66 2.98 13.32 4 14 C2.02 14 0.04 14 -2 14 C-2.33 10.04 -2.66 6.08 -3 2 C-2.01 1.34 -1.02 0.68 0 0 Z " fill="#926736" transform="translate(138,80)"/>
<path d="M0 0 C0.85464844 -0.01417969 1.70929688 -0.02835938 2.58984375 -0.04296875 C5.20159303 0.20046444 6.81750652 0.8696732 9.0625 2.1875 C8.20527344 2.12949219 7.34804687 2.07148438 6.46484375 2.01171875 C-1.34591865 1.54947502 -1.34591865 1.54947502 -8.25 4.6875 C-9.136875 5.5125 -10.02375 6.3375 -10.9375 7.1875 C-11.2675 6.5275 -11.5975 5.8675 -11.9375 5.1875 C-12.515 5.538125 -13.0925 5.88875 -13.6875 6.25 C-16.33536506 7.35327711 -17.26935326 6.98906509 -19.9375 6.1875 C-18.00055322 5.37368205 -16.06292289 4.56149084 -14.125 3.75 C-13.04605469 3.29753906 -11.96710937 2.84507813 -10.85546875 2.37890625 C-7.03340774 0.81835925 -4.10856532 0.03089147 0 0 Z " fill="#435E20" transform="translate(66.9375,8.8125)"/>
<path d="M0 0 C0.66 0 1.32 0 2 0 C2 0.99 2 1.98 2 3 C1.01 3.495 1.01 3.495 0 4 C-0.144375 4.969375 -0.28875 5.93875 -0.4375 6.9375 C-0.623125 7.948125 -0.80875 8.95875 -1 10 C-4 12 -4 12 -6.1875 11.625 C-6.785625 11.41875 -7.38375 11.2125 -8 11 C-6.60366572 6.55711819 -4.39598172 4.13475236 -1 1 C-0.67 0.67 -0.34 0.34 0 0 Z " fill="#BC1C5D" transform="translate(25,74)"/>
<path d="M0 0 C0.33 1.32 0.66 2.64 1 4 C-3.625 6.125 -3.625 6.125 -7 5 C-8.485 7.475 -8.485 7.475 -10 10 C-10 6.55881664 -9.31035007 4.17242648 -8 1 C-5.07175348 0.02391783 -3.04386724 -0.08226668 0 0 Z " fill="#BE245D" transform="translate(42,75)"/>
<path d="M0 0 C0.66 0 1.32 0 2 0 C0.90092392 2.56451085 -0.0984449 4.09554946 -2.125 6.0625 C-4.34771071 7.90993327 -4.34771071 7.90993327 -4 11 C-5.19346152 13.93775144 -6.66063182 15.87330165 -9 18 C-9.95020028 15.00321449 -10.46463605 12.93113064 -9.0234375 10.04296875 C-7.76294928 8.23332045 -6.56254586 6.55793658 -5 5 C-4.34 5 -3.68 5 -3 5 C-2.690625 4.360625 -2.38125 3.72125 -2.0625 3.0625 C-1 1 -1 1 0 0 Z " fill="#486A20" transform="translate(35,23)"/>
<path d="M0 0 C2.31 0.66 4.62 1.32 7 2 C3.25 5 3.25 5 1 5 C1 5.66 1 6.32 1 7 C-1.5 8.625 -1.5 8.625 -4 10 C-4 9.34 -4 8.68 -4 8 C-4.66 7.67 -5.32 7.34 -6 7 C-5.34 7 -4.68 7 -4 7 C-4 6.34 -4 5.68 -4 5 C-2.68733482 3.64631404 -1.35432675 2.31200404 0 1 C0 0.67 0 0.34 0 0 Z " fill="#142C9A" transform="translate(17,110)"/>
<path d="M0 0 C1.10040063 2.70098335 1.04108632 3.8738063 0.125 6.6875 C-2.75247069 9.81886516 -5.02070208 9.71414031 -9.13671875 9.95703125 C-9.75160156 9.97121094 -10.36648437 9.98539063 -11 10 C-13 7 -13 7 -12.625 4.8125 C-12.41875 4.214375 -12.2125 3.61625 -12 3 C-11.67 4.65 -11.34 6.3 -11 8 C-8.66928121 8.41870553 -8.66928121 8.41870553 -6 8 C-3.63466484 5.49950283 -1.9082313 2.86234695 0 0 Z " fill="#636823" transform="translate(54,87)"/>
<path d="M0 0 C1.875 0.3125 1.875 0.3125 4 1 C6.4294516 4.6441774 6.16179575 6.71241272 6 11 C5.01 10.67 4.02 10.34 3 10 C2.87625 9.195625 2.7525 8.39125 2.625 7.5625 C2.315625 6.2940625 2.315625 6.2940625 2 5 C1.34 4.67 0.68 4.34 0 4 C0 2.68 0 1.36 0 0 Z " fill="#040A00" transform="translate(103,68)"/>
<path d="M0 0 C2 3 2 3 2 6 C0.8553125 6.2165625 0.8553125 6.2165625 -0.3125 6.4375 C-3.08172908 6.9632594 -3.08172908 6.9632594 -6 8 C-6 7.34 -6 6.68 -6 6 C-7.98 6 -9.96 6 -12 6 C-12 5.67 -12 5.34 -12 5 C-8.7 4.34 -5.4 3.68 -2 3 C-2 2.34 -2 1.68 -2 1 C-1.34 0.67 -0.68 0.34 0 0 Z " fill="#4B6920" transform="translate(66,62)"/>
<path d="M0 0 C-0.59861742 2.35171131 -1.26924352 4.6859378 -2 7 C-2.99 7.495 -2.99 7.495 -4 8 C-4 6.68 -4 5.36 -4 4 C-5.98 4.99 -5.98 4.99 -8 6 C-7.1875 3.0625 -7.1875 3.0625 -6 0 C-3 -1 -3 -1 0 0 Z " fill="#D93167" transform="translate(151,78)"/>
<path d="M0 0 C2.31 0 4.62 0 7 0 C7.33 1.65 7.66 3.3 8 5 C7.34 5 6.68 5 6 5 C6.7763932 8.0745356 6.7763932 8.0745356 9 10 C8.01 10.66 7.02 11.32 6 12 C6 11.01 6 10.02 6 9 C5.01 8.67 4.02 8.34 3 8 C3.33 7.67 3.66 7.34 4 7 C4.04063832 5.33382885 4.042721 3.66611905 4 2 C2.35 2 0.7 2 -1 2 C-0.67 1.34 -0.34 0.68 0 0 Z " fill="#79542D" transform="translate(25,69)"/>
<path d="M0 0 C0 1.71878995 -0.00713622 3.43768846 -0.03515625 5.15625 C-0.04417969 5.9296875 -0.05320312 6.703125 -0.0625 7.5 C-0.07410156 8.2734375 -0.08570312 9.046875 -0.09765625 9.84375 C-0.08991544 12.18522404 -0.08991544 12.18522404 1 15 C1.66 15.33 2.32 15.66 3 16 C1.68 16 0.36 16 -1 16 C-1 15.34 -1 14.68 -1 14 C-1.66 14 -2.32 14 -3 14 C-3.08114106 12.22992286 -3.13925505 10.45877902 -3.1875 8.6875 C-3.22230469 7.70136719 -3.25710937 6.71523438 -3.29296875 5.69921875 C-3 3 -3 3 -1.48828125 1.14453125 C-0.99714844 0.76683594 -0.50601563 0.38914063 0 0 Z " fill="#3C5A17" transform="translate(119,50)"/>
<path d="M0 0 C1.670625 0.061875 1.670625 0.061875 3.375 0.125 C3.375 1.115 3.375 2.105 3.375 3.125 C2.776875 2.939375 2.17875 2.75375 1.5625 2.5625 C-0.78908762 1.90406313 -0.78908762 1.90406313 -3.625 3.125 C-5.21336002 4.68818257 -5.21336002 4.68818257 -6.6875 6.5625 C-8.28578674 8.51053905 -9.84073944 10.34073944 -11.625 12.125 C-11.20888059 7.2702735 -9.16608048 5.32060921 -5.625 2.125 C-3.625 0.125 -3.625 0.125 0 0 Z " fill="#755D29" transform="translate(53.625,77.875)"/>
<path d="M0 0 C0.33 0.33 0.66 0.66 1 1 C0.8125 4.4375 0.8125 4.4375 0 8 C-2.0625 9.4375 -2.0625 9.4375 -4 10 C-3.505 9.1028125 -3.505 9.1028125 -3 8.1875 C-1.79212012 5.94613529 -1.79212012 5.94613529 -2 3 C-3.98 3 -5.96 3 -8 3 C-8 2.34 -8 1.68 -8 1 C-5.26752652 -0.36623674 -3.01801098 -0.128426 0 0 Z " fill="#7A542E" transform="translate(44,73)"/>
<path d="M0 0 C0.99 0.33 1.98 0.66 3 1 C2.67 2.65 2.34 4.3 2 6 C1.34 6 0.68 6 0 6 C-0.33 8.31 -0.66 10.62 -1 13 C-1.66 12.67 -2.32 12.34 -3 12 C-3.125 6.25 -3.125 6.25 -2 4 C-1.34 4 -0.68 4 0 4 C0 2.68 0 1.36 0 0 Z " fill="#3D5A1D" transform="translate(81,68)"/>
<path d="M0 0 C1.32 0.99 2.64 1.98 4 3 C3.236875 3.0825 2.47375 3.165 1.6875 3.25 C-1.55524435 4.15495191 -2.16265816 5.28773348 -4 8 C-4.66 8 -5.32 8 -6 8 C-6 8.66 -6 9.32 -6 10 C-6.66 10 -7.32 10 -8 10 C-7.4409112 6.75728494 -6.5867822 5.06942576 -4 3 C-3.34 3 -2.68 3 -2 3 C-2 2.34 -2 1.68 -2 1 C-1.34 0.67 -0.68 0.34 0 0 Z " fill="#596920" transform="translate(26,66)"/>
<path d="M0 0 C0.66 0.33 1.32 0.66 2 1 C1.505 1.70125 1.01 2.4025 0.5 3.125 C-1.1936681 6.37119719 -1.25162315 8.39340156 -1 12 C2.54518884 10.60240095 2.54518884 10.60240095 6 9 C5.34 10.32 4.68 11.64 4 13 C2.02 13 0.04 13 -2 13 C-3.49297212 10.01405576 -3.11755228 7.29146376 -3 4 C-2.67 3.34 -2.34 2.68 -2 2 C-1.34 2 -0.68 2 0 2 C0 1.34 0 0.68 0 0 Z " fill="#705829" transform="translate(18,76)"/>
<path d="M0 0 C-1.35021826 4.41889613 -3.26115668 6.34345343 -7 9 C-7.66 8.34 -8.32 7.68 -9 7 C-8.34 6.01 -7.68 5.02 -7 4 C-6.01 4 -5.02 4 -4 4 C-4 3.01 -4 2.02 -4 1 C-2 0 -2 0 0 0 Z " fill="#63842E" transform="translate(173,88)"/>
<path d="M0 0 C1 2 1 2 0.8125 4.75 C1.04797323 8.83153606 2.55858736 10.79564591 5 14 C3.68 14 2.36 14 1 14 C-1.18841354 10.71737969 -1.24854665 9.68209102 -1.1875 5.875 C-1.18105469 4.98554687 -1.17460938 4.09609375 -1.16796875 3.1796875 C-1 1 -1 1 0 0 Z " fill="#405B1E" transform="translate(44,52)"/>
<path d="M0 0 C6.87234043 2.71276596 6.87234043 2.71276596 7.75 4.6875 C8.08937645 7.82673219 7.12469641 10.08902106 6 13 C5.67 13 5.34 13 5 13 C4.87625 11.1746875 4.87625 11.1746875 4.75 9.3125 C4.26241628 5.21534129 2.90489464 2.99860092 0 0 Z " fill="#405D1E" transform="translate(64,45)"/>
<path d="M0 0 C1.65 0 3.3 0 5 0 C6.06351675 3.38391693 6.21442982 4.5804634 4.5625 7.8125 C4.046875 8.534375 3.53125 9.25625 3 10 C2 8 2 8 2.9375 4.875 C3.4634375 3.451875 3.4634375 3.451875 4 2 C2.68 2 1.36 2 0 2 C0 1.34 0 0.68 0 0 Z " fill="#B14E4B" transform="translate(162,78)"/>
<path d="M0 0 C0.66 0 1.32 0 2 0 C3.62950412 4.12168689 4.26264601 6.70700357 3 11 C2.67 11 2.34 11 2 11 C1.87625 10.21625 1.7525 9.4325 1.625 8.625 C1.20882007 5.85942178 1.20882007 5.85942178 -1 4 C-0.625 1.875 -0.625 1.875 0 0 Z " fill="#42611A" transform="translate(101,68)"/>
<path d="M0 0 C-0.6875 1.9375 -0.6875 1.9375 -2 4 C-4.625 4.75 -4.625 4.75 -7 5 C-7 5.66 -7 6.32 -7 7 C-7.99 6.67 -8.98 6.34 -10 6 C-2.6 0 -2.6 0 0 0 Z " fill="#466420" transform="translate(47,16)"/>
<path d="M0 0 C0.763125 0.0825 1.52625 0.165 2.3125 0.25 C1.9825 1.9 1.6525 3.55 1.3125 5.25 C0.6525 5.25 -0.0075 5.25 -0.6875 5.25 C-1.0175 4.26 -1.3475 3.27 -1.6875 2.25 C-3.6675 3.24 -3.6675 3.24 -5.6875 4.25 C-3.34903846 0.31153846 -3.34903846 0.31153846 0 0 Z " fill="#C83B57" transform="translate(136.6875,75.75)"/>
<path d="M0 0 C1.4540625 0.0309375 1.4540625 0.0309375 2.9375 0.0625 C2.9375 0.3925 2.9375 0.7225 2.9375 1.0625 C1.638125 1.4028125 1.638125 1.4028125 0.3125 1.75 C-3.68028814 3.30275095 -5.90498305 5.20569895 -9.0625 8.0625 C-9.0625 6.7425 -9.0625 5.4225 -9.0625 4.0625 C-6.625 2.375 -6.625 2.375 -4.0625 1.0625 C-3.0625 0.0625 -3.0625 0.0625 0 0 Z " fill="#8C6E35" transform="translate(136.0625,74.9375)"/>
<path d="M0 0 C0.66 0 1.32 0 2 0 C0.24277009 4.31320068 -2.8062168 7.9031084 -7 10 C-6.34 8.35 -5.68 6.7 -5 5 C-4.34 5 -3.68 5 -3 5 C-2.690625 4.360625 -2.38125 3.72125 -2.0625 3.0625 C-1 1 -1 1 0 0 Z " fill="#405A1F" transform="translate(35,23)"/>
<path d="M0 0 C0.66 0.33 1.32 0.66 2 1 C1.401875 1.556875 0.80375 2.11375 0.1875 2.6875 C-1.9863446 4.98556429 -3.46898083 7.24416549 -5 10 C-5 6.55881664 -4.31035007 4.17242648 -3 1 C-2.01 0.67 -1.02 0.34 0 0 Z " fill="#A8314B" transform="translate(37,75)"/>
<path d="M0 0 C0.33 0.66 0.66 1.32 1 2 C0.01 3.485 0.01 3.485 -1 5 C-1.99 5 -2.98 5 -4 5 C-4.33 6.98 -4.66 8.96 -5 11 C-6.04449911 7.86650268 -5.93423645 7.01031744 -5 4 C-4.34 4 -3.68 4 -3 4 C-3 3.34 -3 2.68 -3 2 C-2.01 1.34 -1.02 0.68 0 0 Z " fill="#AB5447" transform="translate(143,81)"/>
<path d="M0 0 C0.99 0 1.98 0 3 0 C2.49396008 2.16874252 2.00016187 3.99967627 1 6 C0.01 6 -0.98 6 -2 6 C-1.49396008 3.83125748 -1.00016187 2.00032373 0 0 Z " fill="#F2207A" transform="translate(162,81)"/>
<path d="M0 0 C-1.1875 1.5 -1.1875 1.5 -3 3 C-5.6875 3.1875 -5.6875 3.1875 -8 3 C-8.33 2.34 -8.66 1.68 -9 1 C-3.375 -1.125 -3.375 -1.125 0 0 Z " fill="#365113" transform="translate(89,80)"/>
<path d="M0 0 C0.99 0 1.98 0 3 0 C2.67 1.32 2.34 2.64 2 4 C1.34 4 0.68 4 0 4 C-0.99 5.485 -0.99 5.485 -2 7 C-2.66 7 -3.32 7 -4 7 C-2.79618552 4.50638429 -1.54571278 2.31856917 0 0 Z " fill="#646325" transform="translate(28,78)"/>
<path d="M0 0 C0.66 0.33 1.32 0.66 2 1 C0.6875 3.5 0.6875 3.5 -1 6 C-1.99 6 -2.98 6 -4 6 C-3.67 4.35 -3.34 2.7 -3 1 C-2.01 0.67 -1.02 0.34 0 0 Z " fill="#A12C45" transform="translate(27,76)"/>
<path d="M0 0 C3.0916909 2.52956528 3.90931332 5.22454612 5 9 C4.01 8.67 3.02 8.34 2 8 C1.26953125 6.15234375 1.26953125 6.15234375 0.8125 3.9375 C0.65394531 3.20402344 0.49539062 2.47054687 0.33203125 1.71484375 C0.22246094 1.14894531 0.11289063 0.58304688 0 0 Z " fill="#527429" transform="translate(163,39)"/>
<path d="M0 0 C0.66 0.33 1.32 0.66 2 1 C-0.31 3.31 -2.62 5.62 -5 8 C-5.33 7.34 -5.66 6.68 -6 6 C-4 4 -2 2 0 0 Z " fill="#282828" transform="translate(32,13)"/>
<path d="M0 0 C0.66 0 1.32 0 2 0 C1.67 1.65 1.34 3.3 1 5 C1.99 5.33 2.98 5.66 4 6 C2.68 6.33 1.36 6.66 0 7 C-1.04449911 3.86650268 -0.93423645 3.01031744 0 0 Z " fill="#D63562" transform="translate(139,86)"/>
<path d="M0 0 C1.03348696 3.10046087 1.17755913 4.05610218 0 7 C-0.99 7.33 -1.98 7.66 -3 8 C-2.25 2.25 -2.25 2.25 0 0 Z " fill="#020500" transform="translate(77,72)"/>
<path d="M0 0 C-0.33 0.66 -0.66 1.32 -1 2 C-8.41176471 3.29411765 -8.41176471 3.29411765 -11 2 C-7.17679443 0.57741188 -4.08718695 -0.24042276 0 0 Z " fill="#162307" transform="translate(60,43)"/>
<path d="" fill="#B0B1B1" transform="translate(0,0)"/>
<path d="" fill="#E3E3E3" transform="translate(0,0)"/>
<path d="" fill="#B0B1B1" transform="translate(0,0)"/>
<path d="" fill="#CBCBCB" transform="translate(0,0)"/>
<path d="" fill="#CBCBCB" transform="translate(0,0)"/>
<path d="" fill="#CBCBCB" transform="translate(0,0)"/>
<path d="" fill="#CBCBCB" transform="translate(0,0)"/>
</svg>
